<svg width="45" height="45" xmlns="http://www.w3.org/2000/svg" fill="none">
 <g>
  <title>Layer 1</title>
  <path d="m38.35454,25.70417l-0.0001,0.9756l-0.9756,-0.0001l0.0001,-0.9756l0.9756,0.0001zm-0.0001,0.9756l-0.0001,0.9756l-0.9756,-0.0001l0.0001,-0.9756l0.9756,0.0001zm-0.0001,0.9756l-0.0001,0.9756l-0.9756,-0.0001l0.0001,-0.9756l0.9756,0.0001zm-0.0001,0.9756l-0.0001,0.9756l-0.9756,-0.0001l0.0001,-0.9756l0.9756,0.0001zm-0.0001,0.9756l-0.0001,0.9756l-0.9756,-0.0001l0.0001,-0.9756l0.9756,0.0001zm-0.9756,-0.0001l-0.0001,0.9756l-0.9756,-0.0001l0.0001,-0.9756l0.9756,0.0001zm0.0001,-0.9756l-0.0001,0.9756l-0.9756,-0.0001l0.0001,-0.9756l0.9756,0.0001zm-0.9756,-0.0001l-0.0001,0.9756l-0.9756,-0.0001l0.0001,-0.9756l0.9756,0.0001zm0.9757,-0.9755l-0.0001,0.9756l-0.9756,-0.0001l0.0001,-0.9756l0.9756,0.0001zm0.0001,-0.9756l-0.0001,0.9756l-0.9756,-0.0001l0.0001,-0.9756l0.9756,0.0001zm0.0001,-0.9756l-0.0001,0.9756l-0.9756,-0.0001l0.0001,-0.9756l0.9756,0.0001zm-0.9758,1.9511l-0.0001,0.9756l-0.9756,-0.0001l0.0001,-0.9756l0.9756,0.0001zm-0.0002,1.9512l-0.0001,0.9756l-0.9756,-0.0001l0.0001,-0.9756l0.9756,0.0001zm0.9755,0.9757l-0.0001,0.9756l-0.9756,-0.0001l0.0001,-0.9756l0.9756,0.0001zm-0.0001,0.9756l-0.0001,0.9756l-0.9756,-0.0001l0.0001,-0.9756l0.9756,0.0001zm-0.9756,-0.0001l-0.0001,0.9756l-0.9757,-0.0001l0.0002,-0.9756l0.9756,0.0001zm-0.0001,0.9756l-0.0002,0.9756l-0.9756,-0.0001l0.0001,-0.9756l0.9757,0.0001zm-0.9757,-0.0001l-0.0001,0.9756l-0.9756,-0.0001l0.0001,-0.9756l0.9756,0.0001zm-0.0001,0.9756l-0.0001,0.9756l-0.9756,-0.0001l0.0001,-0.9756l0.9756,0.0001zm-0.9756,-0.0001l-0.0001,0.9756l-0.9756,-0.0001l0.0001,-0.9756l0.9756,0.0001zm-0.9756,-0.0001l-0.0001,0.9756l-0.9756,-0.0001l0.0001,-0.9756l0.9756,0.0001zm-0.0001,0.9756l-0.0001,0.9756l-0.9756,-0.0001l0.0001,-0.9756l0.9756,0.0001zm0.0002,-1.9512l-0.0001,0.9756l-0.9756,-0.0001l0.0001,-0.9756l0.9756,0.0001zm0.0001,-0.9756l-0.0001,0.9756l-0.9756,-0.0001l0.0001,-0.9756l0.9756,0.0001zm0.0001,-0.9756l-0.0001,0.9756l-0.9756,-0.0001l0.0001,-0.9756l0.9756,0.0001zm0.0002,-0.9756l-0.0002,0.9756l-0.9756,-0.0001l0.0001,-0.9756l0.9757,0.0001zm0.9756,0.0001l-0.0001,0.9756l-0.9757,-0.0001l0.0002,-0.9756l0.9756,0.0001zm0.9756,0.0001l-0.0001,0.9756l-0.9756,-0.0001l0.0001,-0.9756l0.9756,0.0001zm0.0001,-0.9756l-0.0001,0.9756l-0.9756,-0.0001l0.0001,-0.9756l0.9756,0.0001zm0.9754,1.9513l-0.0001,0.9756l-0.9756,-0.0001l0.0001,-0.9756l0.9756,0.0001zm-0.9756,-0.0001l-0.0001,0.9756l-0.9757,-0.0001l0.0002,-0.9756l0.9756,0.0001zm-0.9756,-0.0001l-0.0002,0.9756l-0.9756,-0.0001l0.0001,-0.9756l0.9757,0.0001zm-0.0002,0.9756l-0.0001,0.9756l-0.9756,-0.0001l0.0001,-0.9756l0.9756,0.0001zm-0.0001,0.9756l-0.0001,0.9756l-0.9756,-0.0001l0.0001,-0.9756l0.9756,0.0001zm0.9758,-0.9755l-0.0002,0.9756l-0.9756,-0.0001l0.0001,-0.9756l0.9757,0.0001zm-24.3896,-5.8564l-0.0001,0.9757l-0.9757,-0.0002l0.0002,-0.9756l0.9756,0.0001zm-0.9756,-0.0001l-0.0002,0.9756l-0.9756,-0.0001l0.0001,-0.9756l0.9757,0.0001zm-0.0002,0.9756l-0.0001,0.9757l-0.9756,-0.0002l0.0001,-0.9756l0.9756,0.0001zm-0.0001,0.9757l-0.0001,0.9756l-0.9756,-0.0001l0.0001,-0.9757l0.9756,0.0002zm-0.0001,0.9756l-0.0001,0.9756l-0.9756,-0.0001l0.0001,-0.9756l0.9756,0.0001zm-0.0001,0.9756l-0.0001,0.9756l-0.9756,-0.0001l0.0001,-0.9756l0.9756,0.0001zm0.9757,-0.9755l-0.0001,0.9756l-0.9756,-0.0001l0.0001,-0.9756l0.9756,0.0001zm0.0001,-0.9756l-0.0001,0.9756l-0.9756,-0.0001l0.0001,-0.9756l0.9756,0.0001zm0.0002,-0.9756l-0.0002,0.9756l-0.9756,-0.0001l0.0001,-0.9757l0.9757,0.0002zm0.9753,1.9513l-0.0001,0.9756l-0.9756,-0.0001l0.0001,-0.9756l0.9756,0.0001zm0.0002,-0.9756l-0.0002,0.9756l-0.9756,-0.0001l0.0001,-0.9756l0.9757,0.0001zm-0.9759,1.9511l-0.0001,0.9756l-0.9756,-0.0001l0.0001,-0.9756l0.9756,0.0001zm-0.0001,0.9756l-0.0001,0.9756l-0.9756,-0.0001l0.0001,-0.9756l0.9756,0.0001zm-0.0001,0.9756l-0.0001,0.9756l-0.9756,-0.0001l0.0001,-0.9756l0.9756,0.0001zm0.9756,0.0001l-0.0001,0.9756l-0.9756,-0.0001l0.0001,-0.9756l0.9756,0.0001zm-0.0001,0.9756l-0.0001,0.9756l-0.9756,-0.0001l0.0001,-0.9756l0.9756,0.0001zm0.9756,0.0001l-0.0001,0.9756l-0.9756,-0.0001l0.0001,-0.9756l0.9756,0.0001zm-0.0001,0.9756l-0.0001,0.9756l-0.9756,-0.0001l0.0001,-0.9756l0.9756,0.0001zm0.9756,0.0001l-0.0001,0.9757l-0.9756,-0.0002l0.0001,-0.9756l0.9756,0.0001zm0.9756,0.0002l-0.0001,0.9756l-0.9756,-0.0001l0.0001,-0.9757l0.9756,0.0002zm-0.0001,0.9756l-0.0001,0.9756l-0.9756,-0.0001l0.0001,-0.9756l0.9756,0.0001zm0.0002,-1.9513l-0.0001,0.9757l-0.9756,-0.0002l0.0001,-0.9756l0.9756,0.0001zm0.0001,-0.9756l-0.0001,0.9756l-0.9756,-0.0001l0.0001,-0.9756l0.9756,0.0001zm0.0002,-0.9756l-0.0002,0.9756l-0.9756,-0.0001l0.0001,-0.9756l0.9757,0.0001zm0.0001,-0.9756l-0.0001,0.9756l-0.9757,-0.0001l0.0002,-0.9756l0.9756,0.0001zm-0.9756,-0.0001l-0.0002,0.9756l-0.9756,-0.0001l0.0001,-0.9756l0.9757,0.0001zm-0.9757,-0.0001l-0.0001,0.9756l-0.9756,-0.0001l0.0001,-0.9756l0.9756,0.0001zm0.0002,-0.9756l-0.0002,0.9756l-0.9756,-0.0001l0.0001,-0.9756l0.9757,0.0001zm-0.9758,0.9755l-0.0001,0.9756l-0.9756,-0.0001l0.0001,-0.9756l0.9756,0.0001zm-0.0001,0.9756l-0.0001,0.9756l-0.9756,-0.0001l0.0001,-0.9756l0.9756,0.0001zm0.9756,0.0001l-0.0001,0.9756l-0.9756,-0.0001l0.0001,-0.9756l0.9756,0.0001zm0.9756,0.0001l-0.0001,0.9756l-0.9756,-0.0001l0.0001,-0.9756l0.9756,0.0001zm-0.0001,0.9756l-0.0001,0.9756l-0.9756,-0.0001l0.0001,-0.9756l0.9756,0.0001zm-0.9756,-0.0001l-0.0001,0.9756l-0.9756,-0.0001l0.0001,-0.9756l0.9756,0.0001zm0.9755,0.9757l-0.0001,0.9756l-0.9756,-0.0001l0.0001,-0.9756l0.9756,0.0001zm1.951,1.9515l-0.0001,0.9756l-0.9756,-0.0001l0.0001,-0.9756l0.9756,0.0001zm0.9756,0.0001l-0.0001,0.9756l-0.9756,-0.0001l0.0001,-0.9756l0.9756,0.0001zm0.9757,0.0001l-0.0002,0.9756l-0.9756,-0.0001l0.0001,-0.9756l0.9757,0.0001zm0.9756,0.0001l-0.0001,0.9756l-0.9757,-0.0001l0.0002,-0.9756l0.9756,0.0001zm0.9756,0.0001l-0.0001,0.9756l-0.9756,-0.0001l0.0001,-0.9756l0.9756,0.0001zm0.0001,-0.9756l-0.0001,0.9756l-0.9756,-0.0001l0.0001,-0.9756l0.9756,0.0001zm0.9756,0.0001l-0.0001,0.9756l-0.9756,-0.0001l0.0001,-0.9756l0.9756,0.0001zm0.9756,0.0001l-0.0001,0.9756l-0.9756,-0.0001l0.0001,-0.9756l0.9756,0.0001zm0.9756,0.0001l-0.0001,0.9756l-0.9756,-0.0001l0.0001,-0.9756l0.9756,0.0001zm0.0001,-0.9756l-0.0001,0.9756l-0.9756,-0.0001l0.0001,-0.9756l0.9756,0.0001zm0.9756,0.0001l-0.0001,0.9756l-0.9756,-0.0001l0.0001,-0.9756l0.9756,0.0001zm0.0001,-0.9756l-0.0001,0.9756l-0.9756,-0.0001l0.0001,-0.9756l0.9756,0.0001zm0.0001,-0.9756l-0.0001,0.9756l-0.9756,-0.0001l0.0001,-0.9756l0.9756,0.0001zm-0.9756,-0.0001l-0.0001,0.9756l-0.9756,-0.0001l0.0001,-0.9756l0.9756,0.0001zm-0.9756,-0.0001l-0.0001,0.9756l-0.9756,-0.0001l0.0001,-0.9756l0.9756,0.0001zm-0.9756,-0.0001l-0.0001,0.9756l-0.9756,-0.0001l0.0001,-0.9756l0.9756,0.0001zm-0.9756,-0.0001l-0.0001,0.9756l-0.9756,-0.0001l0.0001,-0.9756l0.9756,0.0001zm-0.9756,-0.0001l-0.0001,0.9756l-0.9756,-0.0001l0.0001,-0.9756l0.9756,0.0001zm-0.9756,-0.0001l-0.0001,0.9756l-0.9756,-0.0001l0.0001,-0.9757l0.9756,0.0002zm-0.9756,-0.0002l-0.0001,0.9757l-0.9756,-0.0002l0.0001,-0.9756l0.9756,0.0001zm-0.9756,-0.0001l-0.0001,0.9756l-0.9757,-0.0001l0.0002,-0.9756l0.9756,0.0001zm-0.0002,1.9513l-0.0002,0.9756l-0.9756,-0.0001l0.0001,-0.9757l0.9757,0.0002zm-0.0002,0.9756l-0.0001,0.9756l-0.9756,-0.0001l0.0001,-0.9756l0.9756,0.0001zm0.9757,0.0001l-0.0002,0.9756l-0.9756,-0.0001l0.0001,-0.9756l0.9757,0.0001zm0.9756,0.0001l-0.0001,0.9756l-0.9757,-0.0001l0.0002,-0.9756l0.9756,0.0001zm0.0001,-0.9756l-0.0001,0.9756l-0.9756,-0.0001l0.0001,-0.9756l0.9756,0.0001zm0.0001,-0.9756l-0.0001,0.9756l-0.9756,-0.0001l0.0001,-0.9756l0.9756,0.0001zm0.9756,0.0001l-0.0001,0.9756l-0.9756,-0.0001l0.0001,-0.9756l0.9756,0.0001zm0.9756,0.0001l-0.0001,0.9756l-0.9756,-0.0001l0.0001,-0.9756l0.9756,0.0001zm0.9756,0.0001l-0.0001,0.9756l-0.9756,-0.0001l0.0001,-0.9756l0.9756,0.0001zm0.9756,0.0001l-0.0001,0.9756l-0.9756,-0.0001l0.0001,-0.9756l0.9756,0.0001zm0.9756,0.0001l-0.0001,0.9756l-0.9756,-0.0001l0.0001,-0.9756l0.9756,0.0001zm-0.9757,0.9755l-0.0001,0.9756l-0.9756,-0.0001l0.0001,-0.9756l0.9756,0.0001zm-0.9756,-0.0001l-0.0001,0.9756l-0.9756,-0.0001l0.0001,-0.9756l0.9756,0.0001zm-1.9513,0.9754l-0.0001,0.9756l-0.9756,-0.0001l0.0001,-0.9756l0.9756,0.0001zm0.0001,-0.9756l-0.0001,0.9756l-0.9756,-0.0001l0.0001,-0.9756l0.9756,0.0001zm0.9756,0.0001l-0.0001,0.9756l-0.9756,-0.0001l0.0001,-0.9756l0.9756,0.0001zm-2.9268,-0.0003l-0.0001,0.9756l-0.9757,-0.0001l0.0002,-0.9756l0.9756,0.0001zm-0.9755,-0.9758l-0.0001,0.9757l-0.9757,-0.0002l0.0001,-0.9756l0.9757,0.0001zm0.9756,0.0002l-0.0001,0.9756l-0.9756,-0.0001l0.0001,-0.9757l0.9756,0.0002zm3.9021,2.9272l-0.0001,0.9756l-0.9756,-0.0001l0.0001,-0.9756l0.9756,0.0001zm0.9756,0.0001l-0.0001,0.9756l-0.9756,-0.0001l0.0001,-0.9756l0.9756,0.0001zm0.9756,0.0001l-0.0001,0.9756l-0.9756,-0.0001l0.0001,-0.9756l0.9756,0.0001zm0.9756,0.0001l-0.0001,0.9757l-0.9756,-0.0002l0.0001,-0.9756l0.9756,0.0001zm0.9756,0.0002l-0.0001,0.9756l-0.9756,-0.0001l0.0001,-0.9757l0.9756,0.0002zm0.9756,0.0001l-0.0001,0.9756l-0.9756,-0.0001l0.0001,-0.9756l0.9756,0.0001zm0.9756,0.0001l-0.0001,0.9756l-0.9756,-0.0001l0.0001,-0.9756l0.9756,0.0001zm0.0001,-0.9756l-0.0001,0.9756l-0.9756,-0.0001l0.0001,-0.9757l0.9756,0.0002zm0.9757,0.0001l-0.0001,0.9756l-0.9757,-0.0001l0.0001,-0.9756l0.9757,0.0001zm0.9756,0.0001l-0.0001,0.9756l-0.9756,-0.0001l0.0001,-0.9756l0.9756,0.0001zm-2.9269,-0.0004l-0.0001,0.9757l-0.9756,-0.0001l0.0001,-0.9757l0.9756,0.0001zm-0.9755,-0.9757l-0.0001,0.9756l-0.9756,-0.0001l0.0001,-0.9756l0.9756,0.0001zm-0.0001,0.9756l-0.0001,0.9757l-0.9756,-0.0002l0.0001,-0.9756l0.9756,0.0001zm-0.9756,-0.0001l-0.0001,0.9756l-0.9756,-0.0001l0.0001,-0.9756l0.9756,0.0001zm1.9513,-0.9754l-0.0001,0.9756l-0.9756,-0.0001l0.0001,-0.9756l0.9756,0.0001zm0.0002,-0.9756l-0.0002,0.9756l-0.9756,-0.0001l0.0001,-0.9756l0.9757,0.0001zm0.0001,-0.9756l-0.0001,0.9756l-0.9757,-0.0001l0.0002,-0.9756l0.9756,0.0001zm-0.9756,-0.0001l-0.0002,0.9756l-0.9756,-0.0001l0.0001,-0.9756l0.9757,0.0001zm-0.0002,0.9756l-0.0001,0.9756l-0.9756,-0.0001l0.0001,-0.9756l0.9756,0.0001zm1.9514,-0.9754l-0.0001,0.9756l-0.9756,-0.0001l0.0001,-0.9756l0.9756,0.0001zm0.9756,0.0001l-0.0001,0.9756l-0.9756,-0.0001l0.0001,-0.9756l0.9756,0.0001zm0.9756,0.0001l-0.0001,0.9757l-0.9756,-0.0002l0.0001,-0.9756l0.9756,0.0001zm0.9756,0.0002l-0.0001,0.9756l-0.9756,-0.0001l0.0001,-0.9757l0.9756,0.0002zm0.9755,0.9757l-0.0001,0.9756l-0.9756,-0.0001l0.0001,-0.9756l0.9756,0.0001zm0.9756,0.0001l-0.0001,0.9756l-0.9756,-0.0001l0.0001,-0.9756l0.9756,0.0001zm0.0001,-0.9756l-0.0001,0.9756l-0.9756,-0.0001l0.0001,-0.9756l0.9756,0.0001zm0.9756,0.0001l-0.0001,0.9756l-0.9756,-0.0001l0.0001,-0.9756l0.9756,0.0001zm-1.9512,-0.0002l-0.0001,0.9756l-0.9756,-0.0001l0.0001,-0.9756l0.9756,0.0001zm1.9511,0.9758l-0.0001,0.9756l-0.9756,-0.0001l0.0001,-0.9756l0.9756,0.0001zm-0.0001,0.9756l-0.0001,0.9756l-0.9756,-0.0001l0.0001,-0.9756l0.9756,0.0001zm-0.0001,0.9756l-0.0001,0.9756l-0.9756,-0.0001l0.0001,-0.9756l0.9756,0.0001zm-0.0001,0.9756l-0.0001,0.9756l-0.9756,-0.0001l0.0001,-0.9756l0.9756,0.0001zm-0.9756,-0.0001l-0.0001,0.9756l-0.9756,-0.0001l0.0001,-0.9756l0.9756,0.0001zm-0.9756,-0.0001l-0.0001,0.9756l-0.9756,-0.0001l0.0001,-0.9756l0.9756,0.0001zm-0.9756,-0.0001l-0.0001,0.9756l-0.9756,-0.0001l0.0001,-0.9756l0.9756,0.0001zm-0.9756,-0.0001l-0.0001,0.9756l-0.9757,-0.0001l0.0002,-0.9756l0.9756,0.0001zm-0.9756,-0.0001l-0.0002,0.9756l-0.9756,-0.0001l0.0001,-0.9756l0.9757,0.0001zm0.0002,-1.9512l-0.0001,0.9756l-0.9757,-0.0001l0.0002,-0.9757l0.9756,0.0002zm0.9756,0.0001l-0.0001,0.9756l-0.9756,-0.0001l0.0001,-0.9756l0.9756,0.0001zm-1.9512,-0.0003l-0.0002,0.9757l-0.9756,-0.0002l0.0001,-0.9756l0.9757,0.0001zm0.0001,-0.9756l-0.0001,0.9756l-0.9757,-0.0001l0.0002,-0.9756l0.9756,0.0001zm0.9756,0.0001l-0.0001,0.9757l-0.9756,-0.0002l0.0001,-0.9756l0.9756,0.0001zm0.9756,0.0002l-0.0001,0.9756l-0.9756,-0.0001l0.0001,-0.9757l0.9756,0.0002zm0.9756,0.0001l-0.0001,0.9756l-0.9756,-0.0001l0.0001,-0.9756l0.9756,0.0001zm0.9755,0.9757l-0.0001,0.9756l-0.9756,-0.0001l0.0001,-0.9756l0.9756,0.0001zm-0.9756,-0.0001l-0.0001,0.9756l-0.9756,-0.0001l0.0001,-0.9756l0.9756,0.0001zm-0.0001,0.9756l-0.0001,0.9756l-0.9756,-0.0001l0.0001,-0.9756l0.9756,0.0001zm0.9756,0.0001l-0.0001,0.9756l-0.9756,-0.0001l0.0001,-0.9756l0.9756,0.0001zm0.9756,0.0001l-0.0001,0.9756l-0.9756,-0.0001l0.0001,-0.9756l0.9756,0.0001zm0.0001,-0.9756l-0.0001,0.9756l-0.9756,-0.0001l0.0001,-0.9756l0.9756,0.0001z" fill="#2E80FF" id="svg_4"/>
  <path d="m11.97924,11.63977l-0.0001,-0.9756l-0.9756,0.0001l0.0001,0.9756l0.9756,-0.0001zm0.9757,-0.0001l-0.0002,-0.9756l-0.9756,0.0001l0.0001,0.9756l0.9757,-0.0001zm0.9756,-0.0001l-0.0001,-0.9757l-0.9757,0.0002l0.0002,0.9756l0.9756,-0.0001zm0.9756,-0.0002l-0.0001,-0.9756l-0.9756,0.0001l0.0001,0.9757l0.9756,-0.0002zm0.0001,0.9757l-0.0001,-0.9757l-0.9756,0.0002l0.0001,0.9756l0.9756,-0.0001zm0.0001,0.9756l-0.0001,-0.9756l-0.9756,0.0001l0.0001,0.9756l0.9756,-0.0001zm0.0001,0.9756l-0.0001,-0.9756l-0.9756,0.0001l0.0001,0.9756l0.9756,-0.0001zm0.9756,-0.0001l-0.0001,-0.9756l-0.9756,0.0001l0.0001,0.9756l0.9756,-0.0001zm-0.0001,-0.9756l-0.0001,-0.9757l-0.9756,0.0002l0.0001,0.9756l0.9756,-0.0001zm-0.0001,-0.9757l-0.0001,-0.9756l-0.9756,0.0001l0.0001,0.9757l0.9756,-0.0002zm-0.0001,-0.9756l-0.0001,-0.9756l-0.9756,0.0001l0.0001,0.9756l0.9756,-0.0001zm0.0004,3.9025l-0.0001,-0.9756l-0.9756,0.0001l0.0001,0.9756l0.9756,-0.0001zm-0.9756,0.0001l-0.0001,-0.9756l-0.9756,0.0001l0.0001,0.9756l0.9756,-0.0001zm-0.9756,0.0001l-0.0001,-0.9756l-0.9756,0.0001l0.0001,0.9756l0.9756,-0.0001zm-0.9756,0.0001l-0.0001,-0.9756l-0.9756,0.0001l0.0001,0.9756l0.9756,-0.0001zm-0.0001,-0.9756l-0.0001,-0.9756l-0.9756,0.0001l0.0001,0.9756l0.9756,-0.0001zm-0.9755,0.9757l-0.0001,-0.9756l-0.9756,0.0001l0.0001,0.9756l0.9756,-0.0001zm-0.0001,-0.9756l-0.0001,-0.9756l-0.9756,0.0001l0.0001,0.9756l0.9756,-0.0001zm-0.0001,-0.9756l-0.0001,-0.9756l-0.9757,0.0001l0.0002,0.9756l0.9756,-0.0001zm-0.0001,-0.9756l-0.0002,-0.9756l-0.9756,0.0001l0.0001,0.9756l0.9757,-0.0001zm0.9756,-0.0001l-0.0001,-0.9756l-0.9757,0.0001l0.0002,0.9756l0.9756,-0.0001zm0.9756,-0.0001l-0.0001,-0.9756l-0.9756,0.0001l0.0001,0.9756l0.9756,-0.0001zm0.0001,0.9756l-0.0001,-0.9756l-0.9756,0.0001l0.0001,0.9756l0.9756,-0.0001zm0.0001,0.9756l-0.0001,-0.9756l-0.9756,0.0001l0.0001,0.9756l0.9756,-0.0001zm-0.9757,-0.9755l-0.0001,-0.9756l-0.9756,0.0001l0.0001,0.9756l0.9756,-0.0001z" fill="#2E80FF" id="svg_5"/>
  <path d="m31.14204,10.99557l-0.0165,-0.9755l-0.9754,0.0164l0.0164,0.9755l0.9755,-0.0164zm0.9754,-0.0165l-0.0164,-0.9754l-0.9755,0.0164l0.0165,0.9755l0.9754,-0.0165zm0.9755,-0.0164l-0.0164,-0.9755l-0.9755,0.0165l0.0164,0.9754l0.9755,-0.0164zm0.9755,-0.0164l-0.0164,-0.9755l-0.9755,0.0164l0.0164,0.9755l0.9755,-0.0164zm0.0164,0.9755l-0.0164,-0.9755l-0.9755,0.0164l0.0164,0.9755l0.9755,-0.0164zm0.0164,0.9754l-0.0164,-0.9754l-0.9755,0.0164l0.0165,0.9755l0.9754,-0.0165zm0.0164,0.9755l-0.0164,-0.9755l-0.9754,0.0165l0.0164,0.9754l0.9754,-0.0164zm0.9755,-0.0164l-0.0164,-0.9755l-0.9755,0.0164l0.0164,0.9755l0.9755,-0.0164zm-0.0164,-0.9755l-0.0164,-0.9755l-0.9755,0.0165l0.0164,0.9754l0.9755,-0.0164zm-0.0164,-0.9755l-0.0165,-0.9754l-0.9754,0.0164l0.0164,0.9755l0.9755,-0.0165zm-0.0165,-0.9754l-0.0164,-0.9755l-0.9754,0.0164l0.0164,0.9755l0.9754,-0.0164zm0.0657,3.9018l-0.0164,-0.9754l-0.9755,0.0164l0.0165,0.9755l0.9754,-0.0165zm-0.9754,0.0165l-0.0165,-0.9755l-0.9754,0.0164l0.0164,0.9755l0.9755,-0.0164zm-0.9755,0.0164l-0.0164,-0.9755l-0.9755,0.0164l0.0164,0.9755l0.9755,-0.0164zm-0.9755,0.0164l-0.0164,-0.9755l-0.9755,0.0165l0.0165,0.9754l0.9754,-0.0164zm-0.0164,-0.9755l-0.0164,-0.9754l-0.9755,0.0164l0.0164,0.9755l0.9755,-0.0165zm-0.959,0.9919l-0.0165,-0.9754l-0.9754,0.0164l0.0164,0.9755l0.9755,-0.0165zm-0.0165,-0.9754l-0.0164,-0.9755l-0.9755,0.0164l0.0165,0.9755l0.9754,-0.0164zm-0.0164,-0.9755l-0.0164,-0.9755l-0.9755,0.0165l0.0164,0.9754l0.9755,-0.0164zm-0.0164,-0.9755l-0.0164,-0.9754l-0.9755,0.0164l0.0164,0.9755l0.9755,-0.0165zm0.9755,-0.0164l-0.0165,-0.9755l-0.9754,0.0165l0.0164,0.9754l0.9755,-0.0164zm0.9754,-0.0164l-0.0164,-0.9755l-0.9755,0.0164l0.0165,0.9755l0.9754,-0.0164zm0.0165,0.9755l-0.0165,-0.9755l-0.9754,0.0164l0.0164,0.9755l0.9755,-0.0164zm0.0164,0.9754l-0.0164,-0.9754l-0.9755,0.0164l0.0164,0.9754l0.9755,-0.0164zm-0.9919,-0.959l-0.0164,-0.9755l-0.9755,0.0164l0.0164,0.9755l0.9755,-0.0164z" fill="#2E80FF" id="svg_6"/>
  <path d="m20.57744,25.27637l0.1426,0.4665l-0.4665,0.1426l-0.1426,-0.4665l0.4665,-0.1426zm-0.1427,-0.4665l0.1427,0.4665l-0.4665,0.1426l-0.1426,-0.4665l0.4664,-0.1426zm-0.1426,-0.4665l0.1426,0.4665l-0.4664,0.1426l-0.1427,-0.4665l0.4665,-0.1426zm-0.1426,-0.4665l0.1426,0.4665l-0.4665,0.1426l-0.1426,-0.4665l0.4665,-0.1426zm0.933,-0.2852l0.1426,0.4665l-0.4665,0.1426l-0.1426,-0.4665l0.4665,-0.1426zm0.1426,0.4665l0.1426,0.4665l-0.4665,0.1426l-0.1426,-0.4665l0.4665,-0.1426zm0.1426,0.4665l0.1426,0.4665l-0.4664,0.1426l-0.1427,-0.4665l0.4665,-0.1426zm0.1426,0.4665l0.1427,0.4664l-0.4665,0.1427l-0.1426,-0.4665l0.4664,-0.1426zm0.1427,0.4664l0.1426,0.4665l-0.4665,0.1427l-0.1426,-0.4665l0.4665,-0.1427zm0.1426,0.4665l0.1426,0.4665l-0.4665,0.1426l-0.1426,-0.4664l0.4665,-0.1427zm0.1426,0.4665l0.1426,0.4665l-0.4665,0.1426l-0.1426,-0.4665l0.4665,-0.1426zm1.0756,0.1813l0.1426,0.4665l-0.4665,0.1426l-0.1426,-0.4665l0.4665,-0.1426zm-0.1426,-0.4665l0.1426,0.4665l-0.4665,0.1426l-0.1426,-0.4665l0.4665,-0.1426zm-0.1426,-0.4665l0.1426,0.4665l-0.4665,0.1426l-0.1426,-0.4665l0.4665,-0.1426zm-0.1426,-0.4665l0.1426,0.4665l-0.4665,0.1426l-0.1426,-0.4665l0.4665,-0.1426zm-0.1427,-0.4665l0.1427,0.4665l-0.4665,0.1426l-0.1427,-0.4665l0.4665,-0.1426zm-0.1426,-0.4665l0.1426,0.4665l-0.4665,0.1426l-0.1426,-0.4665l0.4665,-0.1426zm-0.1426,-0.4665l0.1426,0.4665l-0.4665,0.1426l-0.1426,-0.4664l0.4665,-0.1427zm-0.1426,-0.4665l0.1426,0.4665l-0.4665,0.1427l-0.1426,-0.4665l0.4665,-0.1427zm-0.4665,0.1427l0.1426,0.4665l-0.4665,0.1426l-0.1426,-0.4665l0.4665,-0.1426zm0.1426,0.4665l0.1426,0.4664l-0.4665,0.1427l-0.1426,-0.4665l0.4665,-0.1426zm0.1426,0.4664l0.1426,0.4665l-0.4665,0.1427l-0.1426,-0.4665l0.4665,-0.1427zm0.1426,0.4665l0.1427,0.4665l-0.4665,0.1426l-0.1427,-0.4664l0.4665,-0.1427zm0.1427,0.4665l0.1426,0.4665l-0.4665,0.1426l-0.1426,-0.4665l0.4665,-0.1426zm0.1426,0.4665l0.1426,0.4665l-0.4665,0.1426l-0.1426,-0.4665l0.4665,-0.1426zm0.1426,0.4665l0.1426,0.4665l-0.4665,0.1426l-0.1426,-0.4665l0.4665,-0.1426zm-1.0756,-0.1812l0.1426,0.4664l-0.4665,0.1427l-0.1426,-0.4665l0.4665,-0.1426zm-0.1426,-0.4665l0.1426,0.4665l-0.4665,0.1426l-0.1426,-0.4665l0.4665,-0.1426zm-0.1426,-0.4665l0.1426,0.4665l-0.4665,0.1426l-0.1426,-0.4665l0.4665,-0.1426zm-0.1427,-0.4665l0.1427,0.4665l-0.4665,0.1426l-0.1427,-0.4665l0.4665,-0.1426zm-0.1426,-0.4665l0.1426,0.4665l-0.4665,0.1426l-0.1426,-0.4665l0.4665,-0.1426zm-0.1426,-0.4665l0.1426,0.4665l-0.4665,0.1426l-0.1426,-0.4665l0.4665,-0.1426zm5.1968,1.9819l0.1426,0.4664l-0.4665,0.1427l-0.1426,-0.4665l0.4665,-0.1426zm-0.1427,-0.4665l0.1427,0.4665l-0.4665,0.1426l-0.1427,-0.4665l0.4665,-0.1426zm-0.1426,-0.4665l0.1426,0.4665l-0.4665,0.1426l-0.1426,-0.4665l0.4665,-0.1426zm-0.1426,-0.4665l0.1426,0.4665l-0.4665,0.1426l-0.1426,-0.4665l0.4665,-0.1426zm-0.1426,-0.4665l0.1426,0.4665l-0.4665,0.1426l-0.1426,-0.4665l0.4665,-0.1426zm-0.1426,-0.4665l0.1426,0.4665l-0.4665,0.1426l-0.1426,-0.4665l0.4665,-0.1426zm-0.1427,-0.4665l0.1427,0.4665l-0.4665,0.1426l-0.1427,-0.4665l0.4665,-0.1426zm-0.1426,-0.4665l0.1426,0.4665l-0.4665,0.1426l-0.1426,-0.4665l0.4665,-0.1426zm-0.1426,-0.4665l0.1426,0.4665l-0.4665,0.1426l-0.1426,-0.4664l0.4665,-0.1427zm-0.1426,-0.4665l0.1426,0.4665l-0.4665,0.1427l-0.1426,-0.4665l0.4665,-0.1427zm-0.1427,-0.4664l0.1427,0.4664l-0.4665,0.1427l-0.1426,-0.4665l0.4664,-0.1426zm0.4665,-0.1427l0.1427,0.4665l-0.4665,0.1426l-0.1427,-0.4664l0.4665,-0.1427zm0.1427,0.4665l0.1426,0.4665l-0.4665,0.1426l-0.1426,-0.4665l0.4665,-0.1426zm0.1426,0.4665l0.1426,0.4665l-0.4665,0.1426l-0.1426,-0.4665l0.4665,-0.1426zm0.6091,0.3239l0.1426,0.4665l-0.4665,0.1426l-0.1426,-0.4665l0.4665,-0.1426zm0.1426,0.4665l0.1426,0.4665l-0.4665,0.1426l-0.1426,-0.4665l0.4665,-0.1426zm0.1426,0.4665l0.1427,0.4665l-0.4665,0.1426l-0.1427,-0.4665l0.4665,-0.1426zm0.1427,0.4665l0.1426,0.4664l-0.4665,0.1427l-0.1426,-0.4665l0.4665,-0.1426zm0.1426,0.4664l0.1426,0.4665l-0.4665,0.1427l-0.1426,-0.4665l0.4665,-0.1427zm0.1426,0.4665l0.1426,0.4665l-0.4665,0.1426l-0.1426,-0.4664l0.4665,-0.1427zm0.1426,0.4665l0.1426,0.4665l-0.4665,0.1426l-0.1426,-0.4665l0.4665,-0.1426zm0.5051,-1.6847l0.1427,0.4665l-0.4665,0.1426l-0.1427,-0.4665l0.4665,-0.1426zm-0.1426,-0.4665l0.1426,0.4665l-0.4665,0.1426l-0.1426,-0.4665l0.4665,-0.1426zm-0.1426,-0.4665l0.1426,0.4665l-0.4665,0.1426l-0.1426,-0.4664l0.4665,-0.1427zm-0.1426,-0.4665l0.1426,0.4665l-0.4665,0.1427l-0.1426,-0.4665l0.4665,-0.1427zm-0.4665,0.1427l0.1426,0.4665l-0.4665,0.1426l-0.1426,-0.4665l0.4665,-0.1426zm-0.1426,-0.4665l0.1426,0.4665l-0.4665,0.1426l-0.1426,-0.4665l0.4665,-0.1426zm0.2852,0.933l0.1426,0.4664l-0.4665,0.1427l-0.1426,-0.4665l0.4665,-0.1426zm0.1426,0.4664l0.1426,0.4665l-0.4664,0.1427l-0.1427,-0.4665l0.4665,-0.1427zm0.1426,0.4665l0.1427,0.4665l-0.4665,0.1426l-0.1426,-0.4664l0.4664,-0.1427zm0.1427,0.4665l0.1426,0.4665l-0.4665,0.1426l-0.1426,-0.4665l0.4665,-0.1426zm0.1426,0.4665l0.1426,0.4665l-0.4665,0.1426l-0.1426,-0.4665l0.4665,-0.1426zm-0.7904,0.7517l0.1426,0.4665l-0.4664,0.1427l-0.1427,-0.4665l0.4665,-0.1427zm-0.1426,-0.4664l0.1426,0.4664l-0.4665,0.1427l-0.1426,-0.4665l0.4665,-0.1426zm-0.1426,-0.4665l0.1426,0.4665l-0.4665,0.1426l-0.1426,-0.4665l0.4665,-0.1426zm-0.1426,-0.4665l0.1426,0.4665l-0.4665,0.1426l-0.1426,-0.4665l0.4665,-0.1426zm-0.1427,-0.4665l0.1427,0.4665l-0.4665,0.1426l-0.1426,-0.4665l0.4664,-0.1426zm-0.1426,-0.4665l0.1426,0.4665l-0.4664,0.1426l-0.1427,-0.4665l0.4665,-0.1426zm-0.1426,-0.4665l0.1426,0.4665l-0.4665,0.1426l-0.1426,-0.4665l0.4665,-0.1426zm0.9716,-1.8273l0.1426,0.4665l-0.4665,0.1426l-0.1426,-0.4665l0.4665,-0.1426zm0.1426,0.4665l0.1426,0.4665l-0.4664,0.1426l-0.1427,-0.4665l0.4665,-0.1426zm0.1426,0.4665l0.1427,0.4664l-0.4665,0.1427l-0.1426,-0.4665l0.4664,-0.1426zm-1.2182,-0.6478l0.1426,0.4665l-0.4664,0.1426l-0.1427,-0.4665l0.4665,-0.1426zm0.1426,0.4665l0.1427,0.4665l-0.4665,0.1426l-0.1426,-0.4665l0.4664,-0.1426zm0.1427,0.4665l0.1426,0.4665l-0.4665,0.1426l-0.1426,-0.4665l0.4665,-0.1426zm0.3238,-0.6091l0.1427,0.4665l-0.4665,0.1426l-0.1427,-0.4665l0.4665,-0.1426zm-0.1426,-0.4665l0.1426,0.4665l-0.4665,0.1426l-0.1426,-0.4665l0.4665,-0.1426zm-2.3057,5.8059l0.1426,0.4664l-0.4665,0.1427l-0.1426,-0.4665l0.4665,-0.1426zm0.4665,-0.1427l0.1426,0.4665l-0.4665,0.1426l-0.1426,-0.4664l0.4665,-0.1427zm0.4665,-0.1426l0.1426,0.4665l-0.4665,0.1426l-0.1426,-0.4665l0.4665,-0.1426zm0.4665,-0.1426l0.1426,0.4665l-0.4665,0.1426l-0.1426,-0.4665l0.4665,-0.1426zm0.4665,-0.1426l0.1426,0.4665l-0.4665,0.1426l-0.1426,-0.4665l0.4665,-0.1426zm-0.1427,-0.4665l0.1427,0.4665l-0.4665,0.1426l-0.1426,-0.4665l0.4664,-0.1426zm-0.4664,0.1426l0.1426,0.4665l-0.4665,0.1426l-0.1426,-0.4665l0.4665,-0.1426zm-0.4665,0.1426l0.1426,0.4665l-0.4665,0.1426l-0.1426,-0.4665l0.4665,-0.1426zm-0.4665,0.1426l0.1426,0.4665l-0.4665,0.1427l-0.1426,-0.4665l0.4665,-0.1427zm-0.4665,0.1427l0.1426,0.4665l-0.4665,0.1426l-0.1426,-0.4665l0.4665,-0.1426zm-0.1426,-0.4665l0.1426,0.4665l-0.4665,0.1426l-0.1426,-0.4665l0.4665,-0.1426zm0.4665,-0.1426l0.1426,0.4664l-0.4665,0.1427l-0.1426,-0.4665l0.4665,-0.1426zm0.4664,-0.1427l0.1427,0.4665l-0.4665,0.1426l-0.1426,-0.4664l0.4664,-0.1427zm0.4665,-0.1426l0.1427,0.4665l-0.4665,0.1426l-0.1427,-0.4665l0.4665,-0.1426zm0.4665,-0.1426l0.1426,0.4665l-0.4664,0.1426l-0.1427,-0.4665l0.4665,-0.1426zm-0.1426,-0.4665l0.1426,0.4665l-0.4665,0.1426l-0.1426,-0.4665l0.4665,-0.1426zm-0.4665,0.1426l0.1426,0.4665l-0.4665,0.1426l-0.1426,-0.4665l0.4665,-0.1426zm-0.4665,0.1426l0.1426,0.4665l-0.4664,0.1427l-0.1427,-0.4665l0.4665,-0.1427zm-0.4665,0.1427l0.1427,0.4665l-0.4665,0.1426l-0.1427,-0.4665l0.4665,-0.1426zm-0.4665,0.1426l0.1427,0.4665l-0.4665,0.1426l-0.1426,-0.4665l0.4664,-0.1426zm-0.1426,-0.4665l0.1426,0.4665l-0.4664,0.1426l-0.1427,-0.4665l0.4665,-0.1426zm1.866,-0.5705l0.1426,0.4665l-0.4665,0.1426l-0.1426,-0.4665l0.4665,-0.1426zm-2.3859,-9.4724l0.1426,0.4665l-0.4665,0.1426l-0.1426,-0.4665l0.4665,-0.1426zm0.1426,0.4665l0.1426,0.4665l-0.4665,0.1426l-0.1426,-0.4665l0.4665,-0.1426zm0.1426,0.4665l0.1426,0.4665l-0.4665,0.1426l-0.1426,-0.4665l0.4665,-0.1426zm0.1426,0.4665l0.1426,0.4665l-0.4664,0.1426l-0.1427,-0.4665l0.4665,-0.1426zm0.1426,0.4665l0.1427,0.4664l-0.4665,0.1427l-0.1426,-0.4665l0.4664,-0.1426zm0.1427,0.4664l0.1426,0.4665l-0.4665,0.1427l-0.1426,-0.4665l0.4665,-0.1427zm0.1426,0.4665l0.1426,0.4665l-0.4665,0.1426l-0.1426,-0.4664l0.4665,-0.1427zm0.1426,0.4665l0.1426,0.4665l-0.4665,0.1426l-0.1426,-0.4665l0.4665,-0.1426zm0.1426,0.4665l0.1426,0.4665l-0.4664,0.1426l-0.1427,-0.4665l0.4665,-0.1426zm0.1426,0.4665l0.1427,0.4665l-0.4665,0.1426l-0.1426,-0.4665l0.4664,-0.1426zm0.1427,0.4665l0.1426,0.4665l-0.4665,0.1426l-0.1426,-0.4665l0.4665,-0.1426zm0.1426,0.4665l0.1426,0.4665l-0.4665,0.1426l-0.1426,-0.4665l0.4665,-0.1426zm0.4665,-0.1426l0.1426,0.4665l-0.4665,0.1426l-0.1426,-0.4665l0.4665,-0.1426zm0.1426,0.4665l0.1426,0.4664l-0.4665,0.1427l-0.1426,-0.4665l0.4665,-0.1426zm-0.4665,0.1426l0.1426,0.4665l-0.4665,0.1426l-0.1426,-0.4665l0.4665,-0.1426zm0.1426,0.4665l0.1426,0.4665l-0.4664,0.1426l-0.1427,-0.4665l0.4665,-0.1426zm0.4665,-0.1427l0.1426,0.4665l-0.4665,0.1427l-0.1426,-0.4665l0.4665,-0.1427zm0.4665,-0.1426l0.1426,0.4665l-0.4665,0.1426l-0.1426,-0.4665l0.4665,-0.1426zm0.4665,-0.1426l0.1426,0.4665l-0.4665,0.1426l-0.1426,-0.4665l0.4665,-0.1426zm0.4665,-0.1426l0.1426,0.4665l-0.4665,0.1426l-0.1426,-0.4665l0.4665,-0.1426zm-0.1426,-0.4665l0.1426,0.4665l-0.4665,0.1426l-0.1426,-0.4665l0.4665,-0.1426zm-0.4665,0.1426l0.1426,0.4665l-0.4665,0.1426l-0.1426,-0.4665l0.4665,-0.1426zm-0.1426,-0.4665l0.1426,0.4665l-0.4665,0.1426l-0.1426,-0.4665l0.4665,-0.1426zm0.3238,-0.6091l0.1426,0.4665l-0.4664,0.1426l-0.1427,-0.4665l0.4665,-0.1426zm-0.1426,-0.4665l0.1426,0.4665l-0.4665,0.1426l-0.1426,-0.4665l0.4665,-0.1426zm-0.1426,-0.4665l0.1426,0.4665l-0.4665,0.1426l-0.1426,-0.4664l0.4665,-0.1427zm-0.1426,-0.4665l0.1426,0.4665l-0.4665,0.1427l-0.1426,-0.4665l0.4665,-0.1427zm-0.1427,-0.4664l0.1427,0.4664l-0.4665,0.1427l-0.1426,-0.4665l0.4664,-0.1426zm-0.1426,-0.4665l0.1426,0.4665l-0.4664,0.1426l-0.1427,-0.4665l0.4665,-0.1426zm-0.1426,-0.4665l0.1426,0.4665l-0.4665,0.1426l-0.1426,-0.4665l0.4665,-0.1426zm-0.1426,-0.4665l0.1426,0.4665l-0.4665,0.1426l-0.1426,-0.4665l0.4665,-0.1426zm1.1409,3.7319l0.1427,0.4665l-0.4665,0.1426l-0.1426,-0.4665l0.4664,-0.1426zm-1.2835,-4.1984l0.1426,0.4665l-0.4665,0.1426l-0.1426,-0.4665l0.4665,-0.1426zm-0.1427,-0.4665l0.1427,0.4665l-0.4665,0.1426l-0.1426,-0.4665l0.4664,-0.1426zm-0.1426,-0.4665l0.1426,0.4665l-0.4664,0.1426l-0.1427,-0.4665l0.4665,-0.1426zm-0.4665,0.1426l0.1427,0.4665l-0.4665,0.1426l-0.1427,-0.4664l0.4665,-0.1427zm-0.4665,0.1427l0.1427,0.4664l-0.4665,0.1427l-0.1426,-0.4665l0.4664,-0.1426zm-0.4664,0.1426l0.1426,0.4665l-0.4665,0.1426l-0.1426,-0.4665l0.4665,-0.1426zm0.1426,0.4665l0.1426,0.4665l-0.4665,0.1426l-0.1426,-0.4665l0.4665,-0.1426zm0.1426,0.4665l0.1426,0.4664l-0.4665,0.1427l-0.1426,-0.4665l0.4665,-0.1426zm0.1426,0.4664l0.1426,0.4665l-0.4665,0.1427l-0.1426,-0.4665l0.4665,-0.1427zm0.1426,0.4665l0.1427,0.4665l-0.4665,0.1426l-0.1427,-0.4664l0.4665,-0.1427zm0.1427,0.4665l0.1426,0.4665l-0.4665,0.1426l-0.1426,-0.4665l0.4665,-0.1426zm0.1426,0.4665l0.1426,0.4665l-0.4665,0.1426l-0.1426,-0.4665l0.4665,-0.1426zm0.1426,0.4665l0.1426,0.4665l-0.4665,0.1426l-0.1426,-0.4665l0.4665,-0.1426zm0.1426,0.4665l0.1426,0.4665l-0.4665,0.1426l-0.1426,-0.4665l0.4665,-0.1426zm0.1426,0.4665l0.1427,0.4665l-0.4665,0.1426l-0.1427,-0.4665l0.4665,-0.1426zm0.6091,0.3239l0.1427,0.4664l-0.4665,0.1427l-0.1426,-0.4665l0.4664,-0.1426zm0.1427,0.4664l0.1426,0.4665l-0.4665,0.1427l-0.1426,-0.4665l0.4665,-0.1427zm0.1426,0.4665l0.1426,0.4665l-0.4665,0.1426l-0.1426,-0.4664l0.4665,-0.1427zm-0.7517,-0.7903l0.1426,0.4665l-0.4665,0.1426l-0.1426,-0.4665l0.4665,-0.1426zm0.9329,-0.2853l0.1427,0.4665l-0.4665,0.1426l-0.1427,-0.4664l0.4665,-0.1427zm-0.2852,-0.9329l0.1426,0.4664l-0.4665,0.1427l-0.1426,-0.4665l0.4665,-0.1426zm-0.1426,-0.4665l0.1426,0.4665l-0.4665,0.1426l-0.1426,-0.4665l0.4665,-0.1426zm-0.1426,-0.4665l0.1426,0.4665l-0.4665,0.1426l-0.1426,-0.4665l0.4665,-0.1426zm-0.1427,-0.4665l0.1427,0.4665l-0.4665,0.1426l-0.1427,-0.4665l0.4665,-0.1426zm-0.1426,-0.4665l0.1426,0.4665l-0.4665,0.1426l-0.1426,-0.4665l0.4665,-0.1426zm-0.1426,-0.4665l0.1426,0.4665l-0.4665,0.1426l-0.1426,-0.4665l0.4665,-0.1426zm-0.1426,-0.4665l0.1426,0.4665l-0.4665,0.1426l-0.1426,-0.4665l0.4665,-0.1426zm-0.1426,-0.4665l0.1426,0.4665l-0.4665,0.1426l-0.1426,-0.4665l0.4665,-0.1426zm-0.4665,0.1426l0.1426,0.4665l-0.4665,0.1427l-0.1426,-0.4665l0.4665,-0.1427zm0.1426,0.4665l0.1426,0.4665l-0.4665,0.1426l-0.1426,-0.4664l0.4665,-0.1427zm0.1426,0.4665l0.1426,0.4665l-0.4665,0.1426l-0.1426,-0.4665l0.4665,-0.1426zm0.1426,0.4665l0.1426,0.4665l-0.4664,0.1426l-0.1427,-0.4665l0.4665,-0.1426zm0.1426,0.4665l0.1427,0.4665l-0.4665,0.1426l-0.1426,-0.4665l0.4664,-0.1426zm0.1427,0.4665l0.1426,0.4665l-0.4665,0.1426l-0.1426,-0.4665l0.4665,-0.1426zm0.1426,0.4665l0.1426,0.4665l-0.4665,0.1426l-0.1426,-0.4665l0.4665,-0.1426zm0.1426,0.4665l0.1426,0.4665l-0.4665,0.1426l-0.1426,-0.4665l0.4665,-0.1426zm0.1426,0.4665l0.1426,0.4665l-0.4664,0.1426l-0.1427,-0.4665l0.4665,-0.1426zm0.4665,-0.1427l0.1426,0.4665l-0.4665,0.1427l-0.1426,-0.4665l0.4665,-0.1427zm-0.4397,5.2354l0.1426,0.4665l-0.4665,0.1426l-0.1426,-0.4665l0.4665,-0.1426zm-1.866,0.5705l0.1426,0.4665l-0.4665,0.1426l-0.1426,-0.4665l0.4665,-0.1426zm0.6091,0.3239l0.1426,0.4665l-0.4665,0.1426l-0.1426,-0.4665l0.4665,-0.1426zm0.4665,-0.1426l0.1426,0.4664l-0.4665,0.1427l-0.1426,-0.4665l0.4665,-0.1426zm0.4665,-0.1427l0.1426,0.4665l-0.4665,0.1426l-0.1426,-0.4664l0.4665,-0.1427zm-2.4365,-1.2954l0.1427,0.4664l-0.4665,0.1427l-0.1426,-0.4665l0.4664,-0.1426zm-0.4664,0.1426l0.1426,0.4665l-0.4665,0.1426l-0.1426,-0.4665l0.4665,-0.1426zm-0.4665,0.1426l0.1426,0.4665l-0.4665,0.1426l-0.1426,-0.4665l0.4665,-0.1426zm-0.4665,0.1426l0.1426,0.4665l-0.4665,0.1426l-0.1426,-0.4665l0.4665,-0.1426zm-0.4665,0.1426l0.1426,0.4665l-0.4665,0.1426l-0.1426,-0.4664l0.4665,-0.1427z" fill="#2E80FF" id="svg_7"/>
 </g>

</svg>