<svg width="147" height="56" viewBox="0 0 147 56" fill="none" xmlns="http://www.w3.org/2000/svg">
<rect width="147" height="56" rx="4" fill="#2E80FF"/>
<path d="M75.2734 19.5455H79.9439L77.9666 31.5114C77.7734 32.6477 77.3246 33.6477 76.62 34.5114C75.9155 35.3693 75.0263 36.0398 73.9524 36.5227C72.8786 37 71.6939 37.2386 70.3984 37.2386C69.2848 37.2386 68.2962 37.0455 67.4325 36.6591C66.5746 36.267 65.9382 35.6534 65.5234 34.8182C65.1143 33.9773 65.0234 32.8864 65.2507 31.5455H69.9893C69.9325 31.9886 69.9439 32.3608 70.0234 32.6619C70.103 32.9574 70.2507 33.1818 70.4666 33.3352C70.6825 33.483 70.9666 33.5568 71.3189 33.5568C71.6712 33.5568 71.9808 33.4801 72.2479 33.3267C72.5149 33.1676 72.7365 32.9375 72.9126 32.6364C73.0888 32.3295 73.2166 31.9545 73.2962 31.5114L75.2734 19.5455ZM97.5987 28.5795C97.2805 30.4773 96.6499 32.0682 95.7067 33.3523C94.7635 34.6364 93.6186 35.6051 92.272 36.2585C90.9254 36.9119 89.4851 37.2386 87.951 37.2386C86.3146 37.2386 84.8942 36.8835 83.6896 36.1733C82.4851 35.4631 81.6072 34.4233 81.0561 33.054C80.505 31.6847 80.3942 30.0114 80.7237 28.0341C81.0305 26.1364 81.6555 24.5398 82.5987 23.2443C83.5419 21.9489 84.6925 20.9688 86.0504 20.304C87.4084 19.6392 88.8601 19.3068 90.4055 19.3068C92.0305 19.3068 93.4425 19.6648 94.6413 20.3807C95.8459 21.0966 96.7209 22.1449 97.2663 23.5256C97.8175 24.9062 97.9283 26.5909 97.5987 28.5795ZM92.826 28.0341C92.9851 27.0341 92.9964 26.1932 92.8601 25.5114C92.7237 24.8239 92.4368 24.3068 91.9993 23.9602C91.5618 23.608 90.9737 23.4318 90.2351 23.4318C89.3942 23.4318 88.6499 23.6364 88.0021 24.0455C87.3544 24.4545 86.8175 25.0426 86.3913 25.8097C85.9652 26.5767 85.6669 27.5 85.4964 28.5795C85.3146 29.5909 85.2976 30.4318 85.4453 31.1023C85.5987 31.7727 85.8999 32.2756 86.3487 32.6108C86.8033 32.946 87.3942 33.1136 88.1214 33.1136C88.951 33.1136 89.6839 32.9148 90.3203 32.517C90.9624 32.1193 91.4936 31.5426 91.9141 30.7869C92.3402 30.0312 92.6442 29.1136 92.826 28.0341ZM98.3935 37L101.291 19.5455H108.859C110.189 19.5455 111.277 19.7244 112.124 20.0824C112.976 20.4403 113.578 20.946 113.93 21.5994C114.288 22.2528 114.393 23.0227 114.246 23.9091C114.132 24.5455 113.888 25.1278 113.513 25.6562C113.143 26.179 112.675 26.6222 112.107 26.9858C111.544 27.3437 110.916 27.5909 110.223 27.7273L110.189 27.8977C110.939 27.9205 111.592 28.108 112.149 28.4602C112.706 28.8068 113.115 29.2898 113.376 29.9091C113.638 30.5227 113.7 31.2386 113.564 32.0568C113.405 33.0114 113.016 33.8608 112.396 34.6051C111.777 35.3494 110.973 35.9347 109.984 36.3608C108.996 36.7869 107.871 37 106.609 37H98.3935ZM103.78 33.2159H105.996C106.78 33.2159 107.396 33.0653 107.845 32.7642C108.3 32.4631 108.57 32.0227 108.655 31.4432C108.723 31.0341 108.689 30.6875 108.553 30.4034C108.416 30.1193 108.186 29.9034 107.862 29.7557C107.538 29.608 107.132 29.5341 106.643 29.5341H104.359L103.78 33.2159ZM104.871 26.6023H106.814C107.223 26.6023 107.598 26.5369 107.939 26.4062C108.28 26.2756 108.561 26.0852 108.783 25.8352C109.004 25.5852 109.143 25.2841 109.2 24.9318C109.286 24.3864 109.155 23.9716 108.808 23.6875C108.467 23.4034 108.007 23.2614 107.428 23.2614H105.416L104.871 26.6023ZM122.061 19.5455L119.163 37H114.425L117.322 19.5455H122.061ZM123.182 23.3636L123.83 19.5455H139L138.352 23.3636H133.102L130.852 37H126.182L128.432 23.3636H123.182Z" fill="white"/>
<rect x="5" y="5" width="46" height="46" rx="10" fill="white"/>
<path d="M42.393 34.0375L42.3929 35.0131L41.4173 35.013L41.4174 34.0374L42.393 34.0375ZM42.3929 35.0131L42.3928 35.9887L41.4172 35.9886L41.4173 35.013L42.3929 35.0131ZM42.3928 35.9887L42.3927 36.9643L41.4171 36.9642L41.4172 35.9886L42.3928 35.9887ZM42.3927 36.9643L42.3926 37.9399L41.417 37.9398L41.4171 36.9642L42.3927 36.9643ZM42.3926 37.9399L42.3925 38.9155L41.4169 38.9154L41.417 37.9398L42.3926 37.9399ZM41.417 37.9398L41.4169 38.9154L40.4413 38.9153L40.4414 37.9397L41.417 37.9398ZM41.4171 36.9642L41.417 37.9398L40.4414 37.9397L40.4415 36.9641L41.4171 36.9642ZM40.4415 36.9641L40.4414 37.9397L39.4658 37.9396L39.4659 36.964L40.4415 36.9641ZM41.4172 35.9886L41.4171 36.9642L40.4415 36.9641L40.4416 35.9885L41.4172 35.9886ZM41.4173 35.013L41.4172 35.9886L40.4416 35.9885L40.4417 35.0129L41.4173 35.013ZM41.4174 34.0374L41.4173 35.013L40.4417 35.0129L40.4418 34.0373L41.4174 34.0374ZM40.4416 35.9885L40.4415 36.9641L39.4659 36.964L39.466 35.9884L40.4416 35.9885ZM40.4414 37.9397L40.4413 38.9153L39.4657 38.9152L39.4658 37.9396L40.4414 37.9397ZM41.4169 38.9154L41.4168 39.891L40.4412 39.8909L40.4413 38.9153L41.4169 38.9154ZM41.4168 39.891L41.4167 40.8666L40.4411 40.8665L40.4412 39.8909L41.4168 39.891ZM40.4412 39.8909L40.4411 40.8665L39.4654 40.8664L39.4656 39.8908L40.4412 39.8909ZM40.4411 40.8665L40.4409 41.8421L39.4653 41.842L39.4654 40.8664L40.4411 40.8665ZM39.4654 40.8664L39.4653 41.842L38.4897 41.8419L38.4898 40.8663L39.4654 40.8664ZM39.4653 41.842L39.4652 42.8176L38.4896 42.8175L38.4897 41.8419L39.4653 41.842ZM38.4897 41.8419L38.4896 42.8175L37.514 42.8174L37.5141 41.8418L38.4897 41.8419ZM37.5141 41.8418L37.514 42.8174L36.5384 42.8173L36.5385 41.8417L37.5141 41.8418ZM37.514 42.8174L37.5139 43.793L36.5383 43.7929L36.5384 42.8173L37.514 42.8174ZM37.5142 40.8662L37.5141 41.8418L36.5385 41.8417L36.5386 40.8661L37.5142 40.8662ZM37.5143 39.8906L37.5142 40.8662L36.5386 40.8661L36.5387 39.8905L37.5143 39.8906ZM37.5144 38.915L37.5143 39.8906L36.5387 39.8905L36.5388 38.9149L37.5144 38.915ZM37.5146 37.9394L37.5144 38.915L36.5388 38.9149L36.5389 37.9393L37.5146 37.9394ZM38.4902 37.9395L38.4901 38.9151L37.5144 38.915L37.5146 37.9394L38.4902 37.9395ZM39.4658 37.9396L39.4657 38.9152L38.4901 38.9151L38.4902 37.9395L39.4658 37.9396ZM39.4659 36.964L39.4658 37.9396L38.4902 37.9395L38.4903 36.9639L39.4659 36.964ZM40.4413 38.9153L40.4412 39.8909L39.4656 39.8908L39.4657 38.9152L40.4413 38.9153ZM39.4657 38.9152L39.4656 39.8908L38.4899 39.8907L38.4901 38.9151L39.4657 38.9152ZM38.4901 38.9151L38.4899 39.8907L37.5143 39.8906L37.5144 38.915L38.4901 38.9151ZM38.4899 39.8907L38.4898 40.8663L37.5142 40.8662L37.5143 39.8906L38.4899 39.8907ZM38.4898 40.8663L38.4897 41.8419L37.5141 41.8418L37.5142 40.8662L38.4898 40.8663ZM39.4656 39.8908L39.4654 40.8664L38.4898 40.8663L38.4899 39.8907L39.4656 39.8908ZM15.076 34.0344L15.0759 35.0101L14.1002 35.0099L14.1004 34.0343L15.076 34.0344ZM14.1004 34.0343L14.1002 35.0099L13.1246 35.0098L13.1247 34.0342L14.1004 34.0343ZM14.1002 35.0099L14.1001 35.9856L13.1245 35.9854L13.1246 35.0098L14.1002 35.0099ZM14.1001 35.9856L14.1 36.9612L13.1244 36.9611L13.1245 35.9854L14.1001 35.9856ZM14.1 36.9612L14.0999 37.9368L13.1243 37.9367L13.1244 36.9611L14.1 36.9612ZM14.0999 37.9368L14.0998 38.9124L13.1242 38.9123L13.1243 37.9367L14.0999 37.9368ZM15.0756 36.9613L15.0755 37.9369L14.0999 37.9368L14.1 36.9612L15.0756 36.9613ZM15.0757 35.9857L15.0756 36.9613L14.1 36.9612L14.1001 35.9856L15.0757 35.9857ZM15.0759 35.0101L15.0757 35.9857L14.1001 35.9856L14.1002 35.0099L15.0759 35.0101ZM16.0512 36.9614L16.0511 37.937L15.0755 37.9369L15.0756 36.9613L16.0512 36.9614ZM16.0514 35.9858L16.0512 36.9614L15.0756 36.9613L15.0757 35.9857L16.0514 35.9858ZM15.0755 37.9369L15.0754 38.9125L14.0998 38.9124L14.0999 37.9368L15.0755 37.9369ZM15.0754 38.9125L15.0753 39.8881L14.0997 39.888L14.0998 38.9124L15.0754 38.9125ZM15.0753 39.8881L15.0752 40.8637L14.0996 40.8636L14.0997 39.888L15.0753 39.8881ZM16.0509 39.8882L16.0508 40.8638L15.0752 40.8637L15.0753 39.8881L16.0509 39.8882ZM16.0508 40.8638L16.0507 41.8394L15.0751 41.8393L15.0752 40.8637L16.0508 40.8638ZM17.0264 40.8639L17.0263 41.8395L16.0507 41.8394L16.0508 40.8638L17.0264 40.8639ZM17.0263 41.8395L17.0262 42.8151L16.0506 42.815L16.0507 41.8394L17.0263 41.8395ZM18.0019 41.8396L18.0018 42.8153L17.0262 42.8151L17.0263 41.8395L18.0019 41.8396ZM18.9775 41.8398L18.9774 42.8154L18.0018 42.8153L18.0019 41.8396L18.9775 41.8398ZM18.9774 42.8154L18.9773 43.791L18.0017 43.7909L18.0018 42.8153L18.9774 42.8154ZM18.9776 40.8641L18.9775 41.8398L18.0019 41.8396L18.002 40.864L18.9776 40.8641ZM18.9777 39.8885L18.9776 40.8641L18.002 40.864L18.0021 39.8884L18.9777 39.8885ZM18.9779 38.9129L18.9777 39.8885L18.0021 39.8884L18.0022 38.9128L18.9779 38.9129ZM18.978 37.9373L18.9779 38.9129L18.0022 38.9128L18.0024 37.9372L18.978 37.9373ZM18.0024 37.9372L18.0022 38.9128L17.0266 38.9127L17.0267 37.9371L18.0024 37.9372ZM17.0267 37.9371L17.0266 38.9127L16.051 38.9126L16.0511 37.937L17.0267 37.9371ZM17.0269 36.9615L17.0267 37.9371L16.0511 37.937L16.0512 36.9614L17.0269 36.9615ZM16.0511 37.937L16.051 38.9126L15.0754 38.9125L15.0755 37.9369L16.0511 37.937ZM16.051 38.9126L16.0509 39.8882L15.0753 39.8881L15.0754 38.9125L16.051 38.9126ZM17.0266 38.9127L17.0265 39.8883L16.0509 39.8882L16.051 38.9126L17.0266 38.9127ZM18.0022 38.9128L18.0021 39.8884L17.0265 39.8883L17.0266 38.9127L18.0022 38.9128ZM18.0021 39.8884L18.002 40.864L17.0264 40.8639L17.0265 39.8883L18.0021 39.8884ZM17.0265 39.8883L17.0264 40.8639L16.0508 40.8638L16.0509 39.8882L17.0265 39.8883ZM18.002 40.864L18.0019 41.8396L17.0263 41.8395L17.0264 40.8639L18.002 40.864ZM19.953 42.8155L19.9529 43.7911L18.9773 43.791L18.9774 42.8154L19.953 42.8155ZM20.9286 42.8156L20.9285 43.7912L19.9529 43.7911L19.953 42.8155L20.9286 42.8156ZM21.9043 42.8157L21.9041 43.7913L20.9285 43.7912L20.9286 42.8156L21.9043 42.8157ZM22.8799 42.8158L22.8798 43.7914L21.9041 43.7913L21.9043 42.8157L22.8799 42.8158ZM23.8555 42.8159L23.8554 43.7915L22.8798 43.7914L22.8799 42.8158L23.8555 42.8159ZM23.8556 41.8403L23.8555 42.8159L22.8799 42.8158L22.88 41.8402L23.8556 41.8403ZM24.8312 41.8404L24.8311 42.816L23.8555 42.8159L23.8556 41.8403L24.8312 41.8404ZM25.8068 41.8405L25.8067 42.8161L24.8311 42.816L24.8312 41.8404L25.8068 41.8405ZM26.7824 41.8406L26.7823 42.8162L25.8067 42.8161L25.8068 41.8405L26.7824 41.8406ZM26.7825 40.865L26.7824 41.8406L25.8068 41.8405L25.8069 40.8649L26.7825 40.865ZM27.7581 40.8651L27.758 41.8407L26.7824 41.8406L26.7825 40.865L27.7581 40.8651ZM27.7582 39.8895L27.7581 40.8651L26.7825 40.865L26.7826 39.8894L27.7582 39.8895ZM27.7583 38.9139L27.7582 39.8895L26.7826 39.8894L26.7827 38.9138L27.7583 38.9139ZM26.7827 38.9138L26.7826 39.8894L25.807 39.8893L25.8071 38.9137L26.7827 38.9138ZM25.8071 38.9137L25.807 39.8893L24.8314 39.8892L24.8315 38.9136L25.8071 38.9137ZM24.8315 38.9136L24.8314 39.8892L23.8558 39.8891L23.8559 38.9135L24.8315 38.9136ZM23.8559 38.9135L23.8558 39.8891L22.8802 39.889L22.8803 38.9134L23.8559 38.9135ZM22.8803 38.9134L22.8802 39.889L21.9046 39.8889L21.9047 38.9133L22.8803 38.9134ZM21.9047 38.9133L21.9046 39.8889L20.929 39.8888L20.9291 38.9131L21.9047 38.9133ZM20.9291 38.9131L20.929 39.8888L19.9534 39.8886L19.9535 38.913L20.9291 38.9131ZM19.9535 38.913L19.9534 39.8886L18.9777 39.8885L18.9779 38.9129L19.9535 38.913ZM19.9533 40.8643L19.9531 41.8399L18.9775 41.8398L18.9776 40.8641L19.9533 40.8643ZM19.9531 41.8399L19.953 42.8155L18.9774 42.8154L18.9775 41.8398L19.9531 41.8399ZM20.9288 41.84L20.9286 42.8156L19.953 42.8155L19.9531 41.8399L20.9288 41.84ZM21.9044 41.8401L21.9043 42.8157L20.9286 42.8156L20.9288 41.84L21.9044 41.8401ZM21.9045 40.8645L21.9044 41.8401L20.9288 41.84L20.9289 40.8644L21.9045 40.8645ZM21.9046 39.8889L21.9045 40.8645L20.9289 40.8644L20.929 39.8888L21.9046 39.8889ZM22.8802 39.889L22.8801 40.8646L21.9045 40.8645L21.9046 39.8889L22.8802 39.889ZM23.8558 39.8891L23.8557 40.8647L22.8801 40.8646L22.8802 39.889L23.8558 39.8891ZM24.8314 39.8892L24.8313 40.8648L23.8557 40.8647L23.8558 39.8891L24.8314 39.8892ZM25.807 39.8893L25.8069 40.8649L24.8313 40.8648L24.8314 39.8892L25.807 39.8893ZM26.7826 39.8894L26.7825 40.865L25.8069 40.8649L25.807 39.8893L26.7826 39.8894ZM25.8069 40.8649L25.8068 41.8405L24.8312 41.8404L24.8313 40.8648L25.8069 40.8649ZM24.8313 40.8648L24.8312 41.8404L23.8556 41.8403L23.8557 40.8647L24.8313 40.8648ZM22.88 41.8402L22.8799 42.8158L21.9043 42.8157L21.9044 41.8401L22.88 41.8402ZM22.8801 40.8646L22.88 41.8402L21.9044 41.8401L21.9045 40.8645L22.8801 40.8646ZM23.8557 40.8647L23.8556 41.8403L22.88 41.8402L22.8801 40.8646L23.8557 40.8647ZM20.9289 40.8644L20.9288 41.84L19.9531 41.8399L19.9533 40.8643L20.9289 40.8644ZM19.9534 39.8886L19.9533 40.8643L18.9776 40.8641L18.9777 39.8885L19.9534 39.8886ZM20.929 39.8888L20.9289 40.8644L19.9533 40.8643L19.9534 39.8886L20.929 39.8888ZM24.8311 42.816L24.831 43.7916L23.8554 43.7915L23.8555 42.8159L24.8311 42.816ZM25.8067 42.8161L25.8066 43.7917L24.831 43.7916L24.8311 42.816L25.8067 42.8161ZM26.7823 42.8162L26.7822 43.7918L25.8066 43.7917L25.8067 42.8161L26.7823 42.8162ZM27.7579 42.8163L27.7578 43.792L26.7822 43.7918L26.7823 42.8162L27.7579 42.8163ZM28.7335 42.8165L28.7334 43.7921L27.7578 43.792L27.7579 42.8163L28.7335 42.8165ZM29.7091 42.8166L29.709 43.7922L28.7334 43.7921L28.7335 42.8165L29.7091 42.8166ZM30.6847 42.8167L30.6846 43.7923L29.709 43.7922L29.7091 42.8166L30.6847 42.8167ZM30.6848 41.8411L30.6847 42.8167L29.7091 42.8166L29.7092 41.8409L30.6848 41.8411ZM31.6605 41.8412L31.6604 42.8168L30.6847 42.8167L30.6848 41.8411L31.6605 41.8412ZM32.6361 41.8413L32.636 42.8169L31.6604 42.8168L31.6605 41.8412L32.6361 41.8413ZM29.7092 41.8409L29.7091 42.8166L28.7335 42.8165L28.7336 41.8408L29.7092 41.8409ZM28.7337 40.8652L28.7336 41.8408L27.758 41.8407L27.7581 40.8651L28.7337 40.8652ZM28.7336 41.8408L28.7335 42.8165L27.7579 42.8163L27.758 41.8407L28.7336 41.8408ZM27.758 41.8407L27.7579 42.8163L26.7823 42.8162L26.7824 41.8406L27.758 41.8407ZM29.7093 40.8653L29.7092 41.8409L28.7336 41.8408L28.7337 40.8652L29.7093 40.8653ZM29.7095 39.8897L29.7093 40.8653L28.7337 40.8652L28.7338 39.8896L29.7095 39.8897ZM29.7096 38.9141L29.7095 39.8897L28.7338 39.8896L28.734 38.914L29.7096 38.9141ZM28.734 38.914L28.7338 39.8896L27.7582 39.8895L27.7583 38.9139L28.734 38.914ZM28.7338 39.8896L28.7337 40.8652L27.7581 40.8651L27.7582 39.8895L28.7338 39.8896ZM30.6852 38.9142L30.6851 39.8898L29.7095 39.8897L29.7096 38.9141L30.6852 38.9142ZM31.6608 38.9143L31.6607 39.8899L30.6851 39.8898L30.6852 38.9142L31.6608 38.9143ZM32.6364 38.9144L32.6363 39.8901L31.6607 39.8899L31.6608 38.9143L32.6364 38.9144ZM33.612 38.9146L33.6119 39.8902L32.6363 39.8901L32.6364 38.9144L33.612 38.9146ZM34.5875 39.8903L34.5874 40.8659L33.6118 40.8658L33.6119 39.8902L34.5875 39.8903ZM35.5631 39.8904L35.563 40.866L34.5874 40.8659L34.5875 39.8903L35.5631 39.8904ZM35.5632 38.9148L35.5631 39.8904L34.5875 39.8903L34.5876 38.9147L35.5632 38.9148ZM36.5388 38.9149L36.5387 39.8905L35.5631 39.8904L35.5632 38.9148L36.5388 38.9149ZM34.5876 38.9147L34.5875 39.8903L33.6119 39.8902L33.612 38.9146L34.5876 38.9147ZM36.5387 39.8905L36.5386 40.8661L35.563 40.866L35.5631 39.8904L36.5387 39.8905ZM36.5386 40.8661L36.5385 41.8417L35.5629 41.8416L35.563 40.866L36.5386 40.8661ZM36.5385 41.8417L36.5384 42.8173L35.5628 42.8172L35.5629 41.8416L36.5385 41.8417ZM36.5384 42.8173L36.5383 43.7929L35.5627 43.7928L35.5628 42.8172L36.5384 42.8173ZM35.5628 42.8172L35.5627 43.7928L34.5871 43.7927L34.5872 42.8171L35.5628 42.8172ZM34.5872 42.8171L34.5871 43.7927L33.6115 43.7926L33.6116 42.817L34.5872 42.8171ZM33.6116 42.817L33.6115 43.7926L32.6359 43.7925L32.636 42.8169L33.6116 42.817ZM32.636 42.8169L32.6359 43.7925L31.6602 43.7924L31.6604 42.8168L32.636 42.8169ZM31.6604 42.8168L31.6602 43.7924L30.6846 43.7923L30.6847 42.8167L31.6604 42.8168ZM31.6606 40.8656L31.6605 41.8412L30.6848 41.8411L30.685 40.8654L31.6606 40.8656ZM32.6362 40.8657L32.6361 41.8413L31.6605 41.8412L31.6606 40.8656L32.6362 40.8657ZM30.685 40.8654L30.6848 41.8411L29.7092 41.8409L29.7093 40.8653L30.685 40.8654ZM30.6851 39.8898L30.685 40.8654L29.7093 40.8653L29.7095 39.8897L30.6851 39.8898ZM31.6607 39.8899L31.6606 40.8656L30.685 40.8654L30.6851 39.8898L31.6607 39.8899ZM32.6363 39.8901L32.6362 40.8657L31.6606 40.8656L31.6607 39.8899L32.6363 39.8901ZM33.6119 39.8902L33.6118 40.8658L32.6362 40.8657L32.6363 39.8901L33.6119 39.8902ZM34.5874 40.8659L34.5873 41.8415L33.6117 41.8414L33.6118 40.8658L34.5874 40.8659ZM33.6118 40.8658L33.6117 41.8414L32.6361 41.8413L32.6362 40.8657L33.6118 40.8658ZM33.6117 41.8414L33.6116 42.817L32.636 42.8169L32.6361 41.8413L33.6117 41.8414ZM34.5873 41.8415L34.5872 42.8171L33.6116 42.817L33.6117 41.8414L34.5873 41.8415ZM35.5629 41.8416L35.5628 42.8172L34.5872 42.8171L34.5873 41.8415L35.5629 41.8416ZM35.563 40.866L35.5629 41.8416L34.5873 41.8415L34.5874 40.8659L35.563 40.866Z" fill="#2E80FF"/>
<path d="M16.0177 19.9731L16.0176 18.9975L15.042 18.9976L15.0421 19.9732L16.0177 19.9731ZM16.9934 19.973L16.9932 18.9974L16.0176 18.9975L16.0177 19.9731L16.9934 19.973ZM17.969 19.9729L17.9689 18.9972L16.9932 18.9974L16.9934 19.973L17.969 19.9729ZM18.9446 19.9727L18.9445 18.9971L17.9689 18.9972L17.969 19.9729L18.9446 19.9727ZM18.9447 20.9484L18.9446 19.9727L17.969 19.9729L17.9691 20.9485L18.9447 20.9484ZM18.9448 21.924L18.9447 20.9484L17.9691 20.9485L17.9692 21.9241L18.9448 21.924ZM18.9449 22.8996L18.9448 21.924L17.9692 21.9241L17.9693 22.8997L18.9449 22.8996ZM19.9205 22.8995L19.9204 21.9239L18.9448 21.924L18.9449 22.8996L19.9205 22.8995ZM19.9204 21.9239L19.9203 20.9482L18.9447 20.9484L18.9448 21.924L19.9204 21.9239ZM19.9203 20.9482L19.9202 19.9726L18.9446 19.9727L18.9447 20.9484L19.9203 20.9482ZM19.9202 19.9726L19.9201 18.997L18.9445 18.9971L18.9446 19.9727L19.9202 19.9726ZM19.9206 23.8751L19.9205 22.8995L18.9449 22.8996L18.945 23.8752L19.9206 23.8751ZM18.945 23.8752L18.9449 22.8996L17.9693 22.8997L17.9694 23.8753L18.945 23.8752ZM17.9694 23.8753L17.9693 22.8997L16.9937 22.8998L16.9938 23.8754L17.9694 23.8753ZM16.9938 23.8754L16.9937 22.8998L16.0181 22.8999L16.0182 23.8755L16.9938 23.8754ZM16.9937 22.8998L16.9936 21.9242L16.018 21.9243L16.0181 22.8999L16.9937 22.8998ZM16.0182 23.8755L16.0181 22.8999L15.0425 22.9L15.0426 23.8756L16.0182 23.8755ZM16.0181 22.8999L16.018 21.9243L15.0424 21.9244L15.0425 22.9L16.0181 22.8999ZM16.018 21.9243L16.0179 20.9487L15.0422 20.9488L15.0424 21.9244L16.018 21.9243ZM16.0179 20.9487L16.0177 19.9731L15.0421 19.9732L15.0422 20.9488L16.0179 20.9487ZM16.9935 20.9486L16.9934 19.973L16.0177 19.9731L16.0179 20.9487L16.9935 20.9486ZM17.9691 20.9485L17.969 19.9729L16.9934 19.973L16.9935 20.9486L17.9691 20.9485ZM17.9692 21.9241L17.9691 20.9485L16.9935 20.9486L16.9936 21.9242L17.9692 21.9241ZM17.9693 22.8997L17.9692 21.9241L16.9936 21.9242L16.9937 22.8998L17.9693 22.8997ZM16.9936 21.9242L16.9935 20.9486L16.0179 20.9487L16.018 21.9243L16.9936 21.9242Z" fill="#2E80FF"/>
<path d="M35.1805 19.3289L35.164 18.3534L34.1886 18.3698L34.205 19.3453L35.1805 19.3289ZM36.1559 19.3124L36.1395 18.337L35.164 18.3534L35.1805 19.3289L36.1559 19.3124ZM37.1314 19.296L37.115 18.3205L36.1395 18.337L36.1559 19.3124L37.1314 19.296ZM38.1069 19.2796L38.0905 18.3041L37.115 18.3205L37.1314 19.296L38.1069 19.2796ZM38.1233 20.2551L38.1069 19.2796L37.1314 19.296L37.1478 20.2715L38.1233 20.2551ZM38.1397 21.2305L38.1233 20.2551L37.1478 20.2715L37.1643 21.247L38.1397 21.2305ZM38.1561 22.206L38.1397 21.2305L37.1643 21.247L37.1807 22.2224L38.1561 22.206ZM39.1316 22.1896L39.1152 21.2141L38.1397 21.2305L38.1561 22.206L39.1316 22.1896ZM39.1152 21.2141L39.0988 20.2386L38.1233 20.2551L38.1397 21.2305L39.1152 21.2141ZM39.0988 20.2386L39.0823 19.2632L38.1069 19.2796L38.1233 20.2551L39.0988 20.2386ZM39.0823 19.2632L39.0659 18.2877L38.0905 18.3041L38.1069 19.2796L39.0823 19.2632ZM39.148 23.165L39.1316 22.1896L38.1561 22.206L38.1726 23.1815L39.148 23.165ZM38.1726 23.1815L38.1561 22.206L37.1807 22.2224L37.1971 23.1979L38.1726 23.1815ZM37.1971 23.1979L37.1807 22.2224L36.2052 22.2388L36.2216 23.2143L37.1971 23.1979ZM36.2216 23.2143L36.2052 22.2388L35.2297 22.2553L35.2462 23.2307L36.2216 23.2143ZM36.2052 22.2388L36.1888 21.2634L35.2133 21.2798L35.2297 22.2553L36.2052 22.2388ZM35.2462 23.2307L35.2297 22.2553L34.2543 22.2717L34.2707 23.2472L35.2462 23.2307ZM35.2297 22.2553L35.2133 21.2798L34.2378 21.2962L34.2543 22.2717L35.2297 22.2553ZM35.2133 21.2798L35.1969 20.3043L34.2214 20.3208L34.2378 21.2962L35.2133 21.2798ZM35.1969 20.3043L35.1805 19.3289L34.205 19.3453L34.2214 20.3208L35.1969 20.3043ZM36.1724 20.2879L36.1559 19.3124L35.1805 19.3289L35.1969 20.3043L36.1724 20.2879ZM37.1478 20.2715L37.1314 19.296L36.1559 19.3124L36.1724 20.2879L37.1478 20.2715ZM37.1643 21.247L37.1478 20.2715L36.1724 20.2879L36.1888 21.2634L37.1643 21.247ZM37.1807 22.2224L37.1643 21.247L36.1888 21.2634L36.2052 22.2388L37.1807 22.2224ZM36.1888 21.2634L36.1724 20.2879L35.1969 20.3043L35.2133 21.2798L36.1888 21.2634Z" fill="#2E80FF"/>
<path d="M24.6159 33.6097L24.7585 34.0762L24.292 34.2188L24.1494 33.7523L24.6159 33.6097ZM24.4732 33.1432L24.6159 33.6097L24.1494 33.7523L24.0068 33.2858L24.4732 33.1432ZM24.3306 32.6767L24.4732 33.1432L24.0068 33.2858L23.8641 32.8193L24.3306 32.6767ZM24.188 32.2102L24.3306 32.6767L23.8641 32.8193L23.7215 32.3528L24.188 32.2102ZM25.121 31.925L25.2636 32.3915L24.7971 32.5341L24.6545 32.0676L25.121 31.925ZM25.2636 32.3915L25.4062 32.858L24.9397 33.0006L24.7971 32.5341L25.2636 32.3915ZM25.4062 32.858L25.5488 33.3245L25.0824 33.4671L24.9397 33.0006L25.4062 32.858ZM25.5488 33.3245L25.6915 33.7909L25.225 33.9336L25.0824 33.4671L25.5488 33.3245ZM25.6915 33.7909L25.8341 34.2574L25.3676 34.4001L25.225 33.9336L25.6915 33.7909ZM25.8341 34.2574L25.9767 34.7239L25.5102 34.8665L25.3676 34.4001L25.8341 34.2574ZM25.9767 34.7239L26.1193 35.1904L25.6528 35.333L25.5102 34.8665L25.9767 34.7239ZM27.0523 34.9052L27.1949 35.3717L26.7284 35.5143L26.5858 35.0478L27.0523 34.9052ZM26.9097 34.4387L27.0523 34.9052L26.5858 35.0478L26.4432 34.5813L26.9097 34.4387ZM26.7671 33.9722L26.9097 34.4387L26.4432 34.5813L26.3006 34.1148L26.7671 33.9722ZM26.6245 33.5057L26.7671 33.9722L26.3006 34.1148L26.158 33.6483L26.6245 33.5057ZM26.4818 33.0392L26.6245 33.5057L26.158 33.6483L26.0153 33.1818L26.4818 33.0392ZM26.3392 32.5727L26.4818 33.0392L26.0153 33.1818L25.8727 32.7153L26.3392 32.5727ZM26.1966 32.1062L26.3392 32.5727L25.8727 32.7153L25.7301 32.2489L26.1966 32.1062ZM26.054 31.6397L26.1966 32.1062L25.7301 32.2489L25.5875 31.7824L26.054 31.6397ZM25.5875 31.7824L25.7301 32.2489L25.2636 32.3915L25.121 31.925L25.5875 31.7824ZM25.7301 32.2489L25.8727 32.7153L25.4062 32.858L25.2636 32.3915L25.7301 32.2489ZM25.8727 32.7153L26.0153 33.1818L25.5488 33.3245L25.4062 32.858L25.8727 32.7153ZM26.0153 33.1818L26.158 33.6483L25.6915 33.7909L25.5488 33.3245L26.0153 33.1818ZM26.158 33.6483L26.3006 34.1148L25.8341 34.2574L25.6915 33.7909L26.158 33.6483ZM26.3006 34.1148L26.4432 34.5813L25.9767 34.7239L25.8341 34.2574L26.3006 34.1148ZM26.4432 34.5813L26.5858 35.0478L26.1193 35.1904L25.9767 34.7239L26.4432 34.5813ZM25.3676 34.4001L25.5102 34.8665L25.0437 35.0092L24.9011 34.5427L25.3676 34.4001ZM25.225 33.9336L25.3676 34.4001L24.9011 34.5427L24.7585 34.0762L25.225 33.9336ZM25.0824 33.4671L25.225 33.9336L24.7585 34.0762L24.6159 33.6097L25.0824 33.4671ZM24.9397 33.0006L25.0824 33.4671L24.6159 33.6097L24.4732 33.1432L24.9397 33.0006ZM24.7971 32.5341L24.9397 33.0006L24.4732 33.1432L24.3306 32.6767L24.7971 32.5341ZM24.6545 32.0676L24.7971 32.5341L24.3306 32.6767L24.188 32.2102L24.6545 32.0676ZM29.8513 34.0495L29.9939 34.5159L29.5274 34.6586L29.3848 34.1921L29.8513 34.0495ZM29.7086 33.583L29.8513 34.0495L29.3848 34.1921L29.2421 33.7256L29.7086 33.583ZM29.566 33.1165L29.7086 33.583L29.2421 33.7256L29.0995 33.2591L29.566 33.1165ZM29.4234 32.65L29.566 33.1165L29.0995 33.2591L28.9569 32.7926L29.4234 32.65ZM29.2808 32.1835L29.4234 32.65L28.9569 32.7926L28.8143 32.3261L29.2808 32.1835ZM29.1382 31.717L29.2808 32.1835L28.8143 32.3261L28.6717 31.8596L29.1382 31.717ZM28.9955 31.2505L29.1382 31.717L28.6717 31.8596L28.529 31.3931L28.9955 31.2505ZM28.8529 30.784L28.9955 31.2505L28.529 31.3931L28.3864 30.9266L28.8529 30.784ZM28.7103 30.3175L28.8529 30.784L28.3864 30.9266L28.2438 30.4602L28.7103 30.3175ZM28.5677 29.851L28.7103 30.3175L28.2438 30.4602L28.1012 29.9937L28.5677 29.851ZM28.425 29.3846L28.5677 29.851L28.1012 29.9937L27.9586 29.5272L28.425 29.3846ZM28.8915 29.2419L29.0342 29.7084L28.5677 29.851L28.425 29.3846L28.8915 29.2419ZM29.0342 29.7084L29.1768 30.1749L28.7103 30.3175L28.5677 29.851L29.0342 29.7084ZM29.1768 30.1749L29.3194 30.6414L28.8529 30.784L28.7103 30.3175L29.1768 30.1749ZM29.7859 30.4988L29.9285 30.9653L29.462 31.1079L29.3194 30.6414L29.7859 30.4988ZM29.9285 30.9653L30.0711 31.4318L29.6046 31.5744L29.462 31.1079L29.9285 30.9653ZM30.0711 31.4318L30.2138 31.8983L29.7473 32.0409L29.6046 31.5744L30.0711 31.4318ZM30.2138 31.8983L30.3564 32.3647L29.8899 32.5074L29.7473 32.0409L30.2138 31.8983ZM30.3564 32.3647L30.499 32.8312L30.0325 32.9739L29.8899 32.5074L30.3564 32.3647ZM30.499 32.8312L30.6416 33.2977L30.1751 33.4403L30.0325 32.9739L30.499 32.8312ZM30.6416 33.2977L30.7842 33.7642L30.3177 33.9068L30.1751 33.4403L30.6416 33.2977ZM31.1467 31.613L31.2894 32.0795L30.8229 32.2221L30.6802 31.7556L31.1467 31.613ZM31.0041 31.1465L31.1467 31.613L30.6802 31.7556L30.5376 31.2891L31.0041 31.1465ZM30.8615 30.68L31.0041 31.1465L30.5376 31.2891L30.395 30.8227L30.8615 30.68ZM30.7189 30.2135L30.8615 30.68L30.395 30.8227L30.2524 30.3562L30.7189 30.2135ZM30.2524 30.3562L30.395 30.8227L29.9285 30.9653L29.7859 30.4988L30.2524 30.3562ZM30.1098 29.8897L30.2524 30.3562L29.7859 30.4988L29.6433 30.0323L30.1098 29.8897ZM30.395 30.8227L30.5376 31.2891L30.0711 31.4318L29.9285 30.9653L30.395 30.8227ZM30.5376 31.2891L30.6802 31.7556L30.2138 31.8983L30.0711 31.4318L30.5376 31.2891ZM30.6802 31.7556L30.8229 32.2221L30.3564 32.3647L30.2138 31.8983L30.6802 31.7556ZM30.8229 32.2221L30.9655 32.6886L30.499 32.8312L30.3564 32.3647L30.8229 32.2221ZM30.9655 32.6886L31.1081 33.1551L30.6416 33.2977L30.499 32.8312L30.9655 32.6886ZM30.1751 33.4403L30.3177 33.9068L29.8513 34.0495L29.7086 33.583L30.1751 33.4403ZM30.0325 32.9739L30.1751 33.4403L29.7086 33.583L29.566 33.1165L30.0325 32.9739ZM29.8899 32.5074L30.0325 32.9739L29.566 33.1165L29.4234 32.65L29.8899 32.5074ZM29.7473 32.0409L29.8899 32.5074L29.4234 32.65L29.2808 32.1835L29.7473 32.0409ZM29.6046 31.5744L29.7473 32.0409L29.2808 32.1835L29.1382 31.717L29.6046 31.5744ZM29.462 31.1079L29.6046 31.5744L29.1382 31.717L28.9955 31.2505L29.462 31.1079ZM29.3194 30.6414L29.462 31.1079L28.9955 31.2505L28.8529 30.784L29.3194 30.6414ZM30.291 28.8141L30.4336 29.2806L29.9671 29.4232L29.8245 28.9567L30.291 28.8141ZM30.4336 29.2806L30.5762 29.7471L30.1098 29.8897L29.9671 29.4232L30.4336 29.2806ZM30.5762 29.7471L30.7189 30.2135L30.2524 30.3562L30.1098 29.8897L30.5762 29.7471ZM29.358 29.0993L29.5006 29.5658L29.0342 29.7084L28.8915 29.2419L29.358 29.0993ZM29.5006 29.5658L29.6433 30.0323L29.1768 30.1749L29.0342 29.7084L29.5006 29.5658ZM29.6433 30.0323L29.7859 30.4988L29.3194 30.6414L29.1768 30.1749L29.6433 30.0323ZM29.9671 29.4232L30.1098 29.8897L29.6433 30.0323L29.5006 29.5658L29.9671 29.4232ZM29.8245 28.9567L29.9671 29.4232L29.5006 29.5658L29.358 29.0993L29.8245 28.9567ZM27.5188 34.7626L27.6614 35.229L27.1949 35.3717L27.0523 34.9052L27.5188 34.7626ZM27.9853 34.6199L28.1279 35.0864L27.6614 35.229L27.5188 34.7626L27.9853 34.6199ZM28.4518 34.4773L28.5944 34.9438L28.1279 35.0864L27.9853 34.6199L28.4518 34.4773ZM28.9183 34.3347L29.0609 34.8012L28.5944 34.9438L28.4518 34.4773L28.9183 34.3347ZM29.3848 34.1921L29.5274 34.6586L29.0609 34.8012L28.9183 34.3347L29.3848 34.1921ZM29.2421 33.7256L29.3848 34.1921L28.9183 34.3347L28.7757 33.8682L29.2421 33.7256ZM28.7757 33.8682L28.9183 34.3347L28.4518 34.4773L28.3092 34.0108L28.7757 33.8682ZM28.3092 34.0108L28.4518 34.4773L27.9853 34.6199L27.8427 34.1534L28.3092 34.0108ZM27.8427 34.1534L27.9853 34.6199L27.5188 34.7626L27.3762 34.2961L27.8427 34.1534ZM27.3762 34.2961L27.5188 34.7626L27.0523 34.9052L26.9097 34.4387L27.3762 34.2961ZM27.2336 33.8296L27.3762 34.2961L26.9097 34.4387L26.7671 33.9722L27.2336 33.8296ZM27.7001 33.687L27.8427 34.1534L27.3762 34.2961L27.2336 33.8296L27.7001 33.687ZM28.1665 33.5443L28.3092 34.0108L27.8427 34.1534L27.7001 33.687L28.1665 33.5443ZM28.633 33.4017L28.7757 33.8682L28.3092 34.0108L28.1665 33.5443L28.633 33.4017ZM29.0995 33.2591L29.2421 33.7256L28.7757 33.8682L28.633 33.4017L29.0995 33.2591ZM28.9569 32.7926L29.0995 33.2591L28.633 33.4017L28.4904 32.9352L28.9569 32.7926ZM28.4904 32.9352L28.633 33.4017L28.1665 33.5443L28.0239 33.0778L28.4904 32.9352ZM28.0239 33.0778L28.1665 33.5443L27.7001 33.687L27.5574 33.2205L28.0239 33.0778ZM27.5574 33.2205L27.7001 33.687L27.2336 33.8296L27.0909 33.3631L27.5574 33.2205ZM27.0909 33.3631L27.2336 33.8296L26.7671 33.9722L26.6245 33.5057L27.0909 33.3631ZM26.9483 32.8966L27.0909 33.3631L26.6245 33.5057L26.4818 33.0392L26.9483 32.8966ZM28.8143 32.3261L28.9569 32.7926L28.4904 32.9352L28.3478 32.4687L28.8143 32.3261ZM26.4284 22.8537L26.571 23.3202L26.1045 23.4628L25.9619 22.9963L26.4284 22.8537ZM26.571 23.3202L26.7136 23.7867L26.2471 23.9293L26.1045 23.4628L26.571 23.3202ZM26.7136 23.7867L26.8562 24.2532L26.3897 24.3958L26.2471 23.9293L26.7136 23.7867ZM26.8562 24.2532L26.9988 24.7197L26.5324 24.8623L26.3897 24.3958L26.8562 24.2532ZM26.9988 24.7197L27.1415 25.1861L26.675 25.3288L26.5324 24.8623L26.9988 24.7197ZM27.1415 25.1861L27.2841 25.6526L26.8176 25.7953L26.675 25.3288L27.1415 25.1861ZM27.2841 25.6526L27.4267 26.1191L26.9602 26.2617L26.8176 25.7953L27.2841 25.6526ZM27.4267 26.1191L27.5693 26.5856L27.1028 26.7282L26.9602 26.2617L27.4267 26.1191ZM27.5693 26.5856L27.7119 27.0521L27.2455 27.1947L27.1028 26.7282L27.5693 26.5856ZM27.7119 27.0521L27.8546 27.5186L27.3881 27.6612L27.2455 27.1947L27.7119 27.0521ZM27.8546 27.5186L27.9972 27.9851L27.5307 28.1277L27.3881 27.6612L27.8546 27.5186ZM27.9972 27.9851L28.1398 28.4516L27.6733 28.5942L27.5307 28.1277L27.9972 27.9851ZM28.4637 27.8425L28.6063 28.309L28.1398 28.4516L27.9972 27.9851L28.4637 27.8425ZM28.6063 28.309L28.7489 28.7754L28.2824 28.9181L28.1398 28.4516L28.6063 28.309ZM28.1398 28.4516L28.2824 28.9181L27.8159 29.0607L27.6733 28.5942L28.1398 28.4516ZM28.2824 28.9181L28.425 29.3846L27.9586 29.5272L27.8159 29.0607L28.2824 28.9181ZM28.7489 28.7754L28.8915 29.2419L28.425 29.3846L28.2824 28.9181L28.7489 28.7754ZM29.2154 28.6328L29.358 29.0993L28.8915 29.2419L28.7489 28.7754L29.2154 28.6328ZM29.6819 28.4902L29.8245 28.9567L29.358 29.0993L29.2154 28.6328L29.6819 28.4902ZM30.1484 28.3476L30.291 28.8141L29.8245 28.9567L29.6819 28.4902L30.1484 28.3476ZM30.0058 27.8811L30.1484 28.3476L29.6819 28.4902L29.5393 28.0237L30.0058 27.8811ZM29.5393 28.0237L29.6819 28.4902L29.2154 28.6328L29.0728 28.1663L29.5393 28.0237ZM29.3967 27.5572L29.5393 28.0237L29.0728 28.1663L28.9302 27.6998L29.3967 27.5572ZM29.7205 26.9481L29.8631 27.4146L29.3967 27.5572L29.254 27.0907L29.7205 26.9481ZM29.5779 26.4816L29.7205 26.9481L29.254 27.0907L29.1114 26.6242L29.5779 26.4816ZM29.4353 26.0151L29.5779 26.4816L29.1114 26.6242L28.9688 26.1578L29.4353 26.0151ZM29.2927 25.5486L29.4353 26.0151L28.9688 26.1578L28.8262 25.6913L29.2927 25.5486ZM29.15 25.0822L29.2927 25.5486L28.8262 25.6913L28.6836 25.2248L29.15 25.0822ZM29.0074 24.6157L29.15 25.0822L28.6836 25.2248L28.5409 24.7583L29.0074 24.6157ZM28.8648 24.1492L29.0074 24.6157L28.5409 24.7583L28.3983 24.2918L28.8648 24.1492ZM28.7222 23.6827L28.8648 24.1492L28.3983 24.2918L28.2557 23.8253L28.7222 23.6827ZM29.8631 27.4146L30.0058 27.8811L29.5393 28.0237L29.3967 27.5572L29.8631 27.4146ZM28.5796 23.2162L28.7222 23.6827L28.2557 23.8253L28.1131 23.3588L28.5796 23.2162ZM28.4369 22.7497L28.5796 23.2162L28.1131 23.3588L27.9705 22.8923L28.4369 22.7497ZM28.2943 22.2832L28.4369 22.7497L27.9705 22.8923L27.8278 22.4258L28.2943 22.2832ZM27.8278 22.4258L27.9705 22.8923L27.504 23.0349L27.3613 22.5685L27.8278 22.4258ZM27.3613 22.5685L27.504 23.0349L27.0375 23.1776L26.8949 22.7111L27.3613 22.5685ZM26.8949 22.7111L27.0375 23.1776L26.571 23.3202L26.4284 22.8537L26.8949 22.7111ZM27.0375 23.1776L27.1801 23.6441L26.7136 23.7867L26.571 23.3202L27.0375 23.1776ZM27.1801 23.6441L27.3227 24.1105L26.8562 24.2532L26.7136 23.7867L27.1801 23.6441ZM27.3227 24.1105L27.4653 24.577L26.9988 24.7197L26.8562 24.2532L27.3227 24.1105ZM27.4653 24.577L27.608 25.0435L27.1415 25.1861L26.9988 24.7197L27.4653 24.577ZM27.608 25.0435L27.7506 25.51L27.2841 25.6526L27.1415 25.1861L27.608 25.0435ZM27.7506 25.51L27.8932 25.9765L27.4267 26.1191L27.2841 25.6526L27.7506 25.51ZM27.8932 25.9765L28.0358 26.443L27.5693 26.5856L27.4267 26.1191L27.8932 25.9765ZM28.0358 26.443L28.1784 26.9095L27.7119 27.0521L27.5693 26.5856L28.0358 26.443ZM28.1784 26.9095L28.3211 27.376L27.8546 27.5186L27.7119 27.0521L28.1784 26.9095ZM28.7875 27.2334L28.9302 27.6998L28.4637 27.8425L28.3211 27.376L28.7875 27.2334ZM28.9302 27.6998L29.0728 28.1663L28.6063 28.309L28.4637 27.8425L28.9302 27.6998ZM29.0728 28.1663L29.2154 28.6328L28.7489 28.7754L28.6063 28.309L29.0728 28.1663ZM28.3211 27.376L28.4637 27.8425L27.9972 27.9851L27.8546 27.5186L28.3211 27.376ZM29.254 27.0907L29.3967 27.5572L28.9302 27.6998L28.7875 27.2334L29.254 27.0907ZM28.9688 26.1578L29.1114 26.6242L28.6449 26.7669L28.5023 26.3004L28.9688 26.1578ZM28.8262 25.6913L28.9688 26.1578L28.5023 26.3004L28.3597 25.8339L28.8262 25.6913ZM28.6836 25.2248L28.8262 25.6913L28.3597 25.8339L28.2171 25.3674L28.6836 25.2248ZM28.5409 24.7583L28.6836 25.2248L28.2171 25.3674L28.0744 24.9009L28.5409 24.7583ZM28.3983 24.2918L28.5409 24.7583L28.0744 24.9009L27.9318 24.4344L28.3983 24.2918ZM28.2557 23.8253L28.3983 24.2918L27.9318 24.4344L27.7892 23.9679L28.2557 23.8253ZM28.1131 23.3588L28.2557 23.8253L27.7892 23.9679L27.6466 23.5014L28.1131 23.3588ZM27.9705 22.8923L28.1131 23.3588L27.6466 23.5014L27.504 23.0349L27.9705 22.8923ZM27.504 23.0349L27.6466 23.5014L27.1801 23.6441L27.0375 23.1776L27.504 23.0349ZM27.6466 23.5014L27.7892 23.9679L27.3227 24.1105L27.1801 23.6441L27.6466 23.5014ZM27.7892 23.9679L27.9318 24.4344L27.4653 24.577L27.3227 24.1105L27.7892 23.9679ZM27.9318 24.4344L28.0744 24.9009L27.608 25.0435L27.4653 24.577L27.9318 24.4344ZM28.0744 24.9009L28.2171 25.3674L27.7506 25.51L27.608 25.0435L28.0744 24.9009ZM28.2171 25.3674L28.3597 25.8339L27.8932 25.9765L27.7506 25.51L28.2171 25.3674ZM28.3597 25.8339L28.5023 26.3004L28.0358 26.443L27.8932 25.9765L28.3597 25.8339ZM28.5023 26.3004L28.6449 26.7669L28.1784 26.9095L28.0358 26.443L28.5023 26.3004ZM28.6449 26.7669L28.7875 27.2334L28.3211 27.376L28.1784 26.9095L28.6449 26.7669ZM29.1114 26.6242L29.254 27.0907L28.7875 27.2334L28.6449 26.7669L29.1114 26.6242ZM28.6717 31.8596L28.8143 32.3261L28.3478 32.4687L28.2052 32.0022L28.6717 31.8596ZM26.8057 32.4301L26.9483 32.8966L26.4818 33.0392L26.3392 32.5727L26.8057 32.4301ZM27.4148 32.754L27.5574 33.2205L27.0909 33.3631L26.9483 32.8966L27.4148 32.754ZM27.8813 32.6114L28.0239 33.0778L27.5574 33.2205L27.4148 32.754L27.8813 32.6114ZM28.3478 32.4687L28.4904 32.9352L28.0239 33.0778L27.8813 32.6114L28.3478 32.4687ZM25.9113 31.1733L26.054 31.6397L25.5875 31.7824L25.4449 31.3159L25.9113 31.1733ZM25.4449 31.3159L25.5875 31.7824L25.121 31.925L24.9784 31.4585L25.4449 31.3159ZM24.9784 31.4585L25.121 31.925L24.6545 32.0676L24.5119 31.6011L24.9784 31.4585ZM24.5119 31.6011L24.6545 32.0676L24.188 32.2102L24.0454 31.7437L24.5119 31.6011ZM24.0454 31.7437L24.188 32.2102L23.7215 32.3528L23.5789 31.8864L24.0454 31.7437Z" fill="#2E80FF"/>
</svg>
