<svg width="134" height="47" viewBox="0 0 134 47" fill="none" xmlns="http://www.w3.org/2000/svg">
<path d="M70.2744 14.5455H74.9449L72.9676 26.5114C72.7744 27.6477 72.3256 28.6477 71.621 29.5114C70.9165 30.3693 70.0273 31.0398 68.9534 31.5227C67.8795 32 66.6949 32.2386 65.3994 32.2386C64.2858 32.2386 63.2971 32.0455 62.4335 31.6591C61.5756 31.267 60.9392 30.6534 60.5244 29.8182C60.1153 28.9773 60.0244 27.8864 60.2517 26.5455H64.9903C64.9335 26.9886 64.9449 27.3608 65.0244 27.6619C65.104 27.9574 65.2517 28.1818 65.4676 28.3352C65.6835 28.483 65.9676 28.5568 66.3199 28.5568C66.6721 28.5568 66.9818 28.4801 67.2488 28.3267C67.5159 28.1676 67.7375 27.9375 67.9136 27.6364C68.0898 27.3295 68.2176 26.9545 68.2971 26.5114L70.2744 14.5455ZM92.5997 23.5795C92.2815 25.4773 91.6508 27.0682 90.7077 28.3523C89.7645 29.6364 88.6196 30.6051 87.273 31.2585C85.9264 31.9119 84.4861 32.2386 82.952 32.2386C81.3156 32.2386 79.8952 31.8835 78.6906 31.1733C77.4861 30.4631 76.6082 29.4233 76.0571 28.054C75.5059 26.6847 75.3952 25.0114 75.7247 23.0341C76.0315 21.1364 76.6565 19.5398 77.5997 18.2443C78.5429 16.9489 79.6934 15.9688 81.0514 15.304C82.4094 14.6392 83.8611 14.3068 85.4065 14.3068C87.0315 14.3068 88.4434 14.6648 89.6423 15.3807C90.8469 16.0966 91.7219 17.1449 92.2673 18.5256C92.8184 19.9062 92.9292 21.5909 92.5997 23.5795ZM87.827 23.0341C87.9861 22.0341 87.9974 21.1932 87.8611 20.5114C87.7247 19.8239 87.4378 19.3068 87.0003 18.9602C86.5628 18.608 85.9747 18.4318 85.2361 18.4318C84.3952 18.4318 83.6508 18.6364 83.0031 19.0455C82.3554 19.4545 81.8184 20.0426 81.3923 20.8097C80.9662 21.5767 80.6679 22.5 80.4974 23.5795C80.3156 24.5909 80.2986 25.4318 80.4463 26.1023C80.5997 26.7727 80.9008 27.2756 81.3497 27.6108C81.8042 27.946 82.3952 28.1136 83.1224 28.1136C83.952 28.1136 84.6849 27.9148 85.3213 27.517C85.9633 27.1193 86.4946 26.5426 86.915 25.7869C87.3412 25.0312 87.6452 24.1136 87.827 23.0341ZM93.3944 32L96.2922 14.5455H103.86C105.19 14.5455 106.278 14.7244 107.125 15.0824C107.977 15.4403 108.579 15.946 108.931 16.5994C109.289 17.2528 109.394 18.0227 109.247 18.9091C109.133 19.5455 108.889 20.1278 108.514 20.6562C108.144 21.179 107.676 21.6222 107.108 21.9858C106.545 22.3437 105.917 22.5909 105.224 22.7273L105.19 22.8977C105.94 22.9205 106.593 23.108 107.15 23.4602C107.707 23.8068 108.116 24.2898 108.377 24.9091C108.639 25.5227 108.701 26.2386 108.565 27.0568C108.406 28.0114 108.017 28.8608 107.397 29.6051C106.778 30.3494 105.974 30.9347 104.985 31.3608C103.997 31.7869 102.872 32 101.61 32H93.3944ZM98.7808 28.2159H100.997C101.781 28.2159 102.397 28.0653 102.846 27.7642C103.301 27.4631 103.571 27.0227 103.656 26.4432C103.724 26.0341 103.69 25.6875 103.554 25.4034C103.417 25.1193 103.187 24.9034 102.863 24.7557C102.539 24.608 102.133 24.5341 101.644 24.5341H99.3604L98.7808 28.2159ZM99.8717 21.6023H101.815C102.224 21.6023 102.599 21.5369 102.94 21.4062C103.281 21.2756 103.562 21.0852 103.784 20.8352C104.005 20.5852 104.144 20.2841 104.201 19.9318C104.286 19.3864 104.156 18.9716 103.809 18.6875C103.468 18.4034 103.008 18.2614 102.429 18.2614H100.417L99.8717 21.6023ZM117.062 14.5455L114.164 32H109.426L112.323 14.5455H117.062ZM118.183 18.3636L118.831 14.5455H134.001L133.353 18.3636H128.103L125.853 32H121.183L123.433 18.3636H118.183Z" fill="#2E80FF"/>
<rect x="0.000976562" width="46" height="46" rx="10" fill="#2E80FF"/>
<path d="M37.3995 28.3919L37.3994 29.3675L36.4238 29.3674L36.4239 28.3918L37.3995 28.3919ZM37.3994 29.3675L37.3993 30.3431L36.4237 30.343L36.4238 29.3674L37.3994 29.3675ZM37.3993 30.3431L37.3992 31.3187L36.4236 31.3186L36.4237 30.343L37.3993 30.3431ZM37.3992 31.3187L37.3991 32.2943L36.4235 32.2942L36.4236 31.3186L37.3992 31.3187ZM37.3991 32.2943L37.399 33.2699L36.4234 33.2698L36.4235 32.2942L37.3991 32.2943ZM36.4235 32.2942L36.4234 33.2698L35.4478 33.2697L35.4479 32.2941L36.4235 32.2942ZM36.4236 31.3186L36.4235 32.2942L35.4479 32.2941L35.448 31.3185L36.4236 31.3186ZM35.448 31.3185L35.4479 32.2941L34.4723 32.294L34.4724 31.3184L35.448 31.3185ZM36.4237 30.343L36.4236 31.3186L35.448 31.3185L35.4481 30.3429L36.4237 30.343ZM36.4238 29.3674L36.4237 30.343L35.4481 30.3429L35.4482 29.3673L36.4238 29.3674ZM36.4239 28.3918L36.4238 29.3674L35.4482 29.3673L35.4483 28.3917L36.4239 28.3918ZM35.4481 30.3429L35.448 31.3185L34.4724 31.3184L34.4725 30.3428L35.4481 30.3429ZM35.4479 32.2941L35.4478 33.2697L34.4721 33.2696L34.4723 32.294L35.4479 32.2941ZM36.4234 33.2698L36.4233 34.2454L35.4477 34.2453L35.4478 33.2697L36.4234 33.2698ZM36.4233 34.2454L36.4232 35.221L35.4475 35.2209L35.4477 34.2453L36.4233 34.2454ZM35.4477 34.2453L35.4475 35.2209L34.4719 35.2208L34.472 34.2452L35.4477 34.2453ZM35.4475 35.2209L35.4474 36.1965L34.4718 36.1964L34.4719 35.2208L35.4475 35.2209ZM34.4719 35.2208L34.4718 36.1964L33.4962 36.1963L33.4963 35.2207L34.4719 35.2208ZM34.4718 36.1964L34.4717 37.172L33.4961 37.1719L33.4962 36.1963L34.4718 36.1964ZM33.4962 36.1963L33.4961 37.1719L32.5205 37.1718L32.5206 36.1962L33.4962 36.1963ZM32.5206 36.1962L32.5205 37.1718L31.5449 37.1717L31.545 36.1961L32.5206 36.1962ZM32.5205 37.1718L32.5204 38.1474L31.5448 38.1473L31.5449 37.1717L32.5205 37.1718ZM32.5207 35.2206L32.5206 36.1962L31.545 36.1961L31.5451 35.2205L32.5207 35.2206ZM32.5208 34.245L32.5207 35.2206L31.5451 35.2205L31.5452 34.2449L32.5208 34.245ZM32.5209 33.2694L32.5208 34.245L31.5452 34.2449L31.5453 33.2693L32.5209 33.2694ZM32.521 32.2938L32.5209 33.2694L31.5453 33.2693L31.5454 32.2937L32.521 32.2938ZM33.4966 32.2939L33.4965 33.2695L32.5209 33.2694L32.521 32.2938L33.4966 32.2939ZM34.4723 32.294L34.4721 33.2696L33.4965 33.2695L33.4966 32.2939L34.4723 32.294ZM34.4724 31.3184L34.4723 32.294L33.4966 32.2939L33.4968 31.3183L34.4724 31.3184ZM35.4478 33.2697L35.4477 34.2453L34.472 34.2452L34.4721 33.2696L35.4478 33.2697ZM34.4721 33.2696L34.472 34.2452L33.4964 34.2451L33.4965 33.2695L34.4721 33.2696ZM33.4965 33.2695L33.4964 34.2451L32.5208 34.245L32.5209 33.2694L33.4965 33.2695ZM33.4964 34.2451L33.4963 35.2207L32.5207 35.2206L32.5208 34.245L33.4964 34.2451ZM33.4963 35.2207L33.4962 36.1963L32.5206 36.1962L32.5207 35.2206L33.4963 35.2207ZM34.472 34.2452L34.4719 35.2208L33.4963 35.2207L33.4964 34.2451L34.472 34.2452ZM10.0824 28.3888L10.0823 29.3644L9.10673 29.3643L9.10684 28.3887L10.0824 28.3888ZM9.10684 28.3887L9.10673 29.3643L8.13112 29.3642L8.13123 28.3886L9.10684 28.3887ZM9.10673 29.3643L9.10662 30.3399L8.13101 30.3398L8.13112 29.3642L9.10673 29.3643ZM9.10662 30.3399L9.10651 31.3156L8.1309 31.3154L8.13101 30.3398L9.10662 30.3399ZM9.10651 31.3156L9.1064 32.2912L8.1308 32.2911L8.1309 31.3154L9.10651 31.3156ZM9.1064 32.2912L9.1063 33.2668L8.13069 33.2667L8.1308 32.2911L9.1064 32.2912ZM10.0821 31.3157L10.082 32.2913L9.1064 32.2912L9.10651 31.3156L10.0821 31.3157ZM10.0822 30.3401L10.0821 31.3157L9.10651 31.3156L9.10662 30.3399L10.0822 30.3401ZM10.0823 29.3644L10.0822 30.3401L9.10662 30.3399L9.10673 29.3643L10.0823 29.3644ZM11.0577 31.3158L11.0576 32.2914L10.082 32.2913L10.0821 31.3157L11.0577 31.3158ZM11.0578 30.3402L11.0577 31.3158L10.0821 31.3157L10.0822 30.3401L11.0578 30.3402ZM10.082 32.2913L10.0819 33.2669L9.1063 33.2668L9.1064 32.2912L10.082 32.2913ZM10.0819 33.2669L10.0818 34.2425L9.10619 34.2424L9.1063 33.2668L10.0819 33.2669ZM10.0818 34.2425L10.0817 35.2181L9.10608 35.218L9.10619 34.2424L10.0818 34.2425ZM11.0574 34.2426L11.0573 35.2182L10.0817 35.2181L10.0818 34.2425L11.0574 34.2426ZM11.0573 35.2182L11.0572 36.1938L10.0816 36.1937L10.0817 35.2181L11.0573 35.2182ZM12.0329 35.2183L12.0328 36.1939L11.0572 36.1938L11.0573 35.2182L12.0329 35.2183ZM12.0328 36.1939L12.0327 37.1695L11.0571 37.1694L11.0572 36.1938L12.0328 36.1939ZM13.0084 36.194L13.0083 37.1696L12.0327 37.1695L12.0328 36.1939L13.0084 36.194ZM13.984 36.1941L13.9839 37.1698L13.0083 37.1696L13.0084 36.194L13.984 36.1941ZM13.9839 37.1698L13.9838 38.1454L13.0082 38.1453L13.0083 37.1696L13.9839 37.1698ZM13.9841 35.2185L13.984 36.1941L13.0084 36.194L13.0085 35.2184L13.9841 35.2185ZM13.9842 34.2429L13.9841 35.2185L13.0085 35.2184L13.0086 34.2428L13.9842 34.2429ZM13.9843 33.2673L13.9842 34.2429L13.0086 34.2428L13.0087 33.2672L13.9843 33.2673ZM13.9845 32.2917L13.9843 33.2673L13.0087 33.2672L13.0088 32.2916L13.9845 32.2917ZM13.0088 32.2916L13.0087 33.2672L12.0331 33.2671L12.0332 32.2915L13.0088 32.2916ZM12.0332 32.2915L12.0331 33.2671L11.0575 33.267L11.0576 32.2914L12.0332 32.2915ZM12.0333 31.3159L12.0332 32.2915L11.0576 32.2914L11.0577 31.3158L12.0333 31.3159ZM11.0576 32.2914L11.0575 33.267L10.0819 33.2669L10.082 32.2913L11.0576 32.2914ZM11.0575 33.267L11.0574 34.2426L10.0818 34.2425L10.0819 33.2669L11.0575 33.267ZM12.0331 33.2671L12.033 34.2427L11.0574 34.2426L11.0575 33.267L12.0331 33.2671ZM13.0087 33.2672L13.0086 34.2428L12.033 34.2427L12.0331 33.2671L13.0087 33.2672ZM13.0086 34.2428L13.0085 35.2184L12.0329 35.2183L12.033 34.2427L13.0086 34.2428ZM12.033 34.2427L12.0329 35.2183L11.0573 35.2182L11.0574 34.2426L12.033 34.2427ZM13.0085 35.2184L13.0084 36.194L12.0328 36.1939L12.0329 35.2183L13.0085 35.2184ZM14.9595 37.1699L14.9594 38.1455L13.9838 38.1454L13.9839 37.1698L14.9595 37.1699ZM15.9351 37.17L15.935 38.1456L14.9594 38.1455L14.9595 37.1699L15.9351 37.17ZM16.9107 37.1701L16.9106 38.1457L15.935 38.1456L15.9351 37.17L16.9107 37.1701ZM17.8863 37.1702L17.8862 38.1458L16.9106 38.1457L16.9107 37.1701L17.8863 37.1702ZM18.862 37.1703L18.8619 38.1459L17.8862 38.1458L17.8863 37.1702L18.862 37.1703ZM18.8621 36.1947L18.862 37.1703L17.8863 37.1702L17.8865 36.1946L18.8621 36.1947ZM19.8377 36.1948L19.8376 37.1704L18.862 37.1703L18.8621 36.1947L19.8377 36.1948ZM20.8133 36.1949L20.8132 37.1705L19.8376 37.1704L19.8377 36.1948L20.8133 36.1949ZM21.7889 36.195L21.7888 37.1706L20.8132 37.1705L20.8133 36.1949L21.7889 36.195ZM21.789 35.2194L21.7889 36.195L20.8133 36.1949L20.8134 35.2193L21.789 35.2194ZM22.7646 35.2195L22.7645 36.1951L21.7889 36.195L21.789 35.2194L22.7646 35.2195ZM22.7647 34.2439L22.7646 35.2195L21.789 35.2194L21.7891 34.2438L22.7647 34.2439ZM22.7648 33.2683L22.7647 34.2439L21.7891 34.2438L21.7892 33.2682L22.7648 33.2683ZM21.7892 33.2682L21.7891 34.2438L20.8135 34.2437L20.8136 33.2681L21.7892 33.2682ZM20.8136 33.2681L20.8135 34.2437L19.8379 34.2436L19.838 33.268L20.8136 33.2681ZM19.838 33.268L19.8379 34.2436L18.8623 34.2435L18.8624 33.2679L19.838 33.268ZM18.8624 33.2679L18.8623 34.2435L17.8867 34.2434L17.8868 33.2678L18.8624 33.2679ZM17.8868 33.2678L17.8867 34.2434L16.9111 34.2433L16.9112 33.2676L17.8868 33.2678ZM16.9112 33.2676L16.9111 34.2433L15.9355 34.2431L15.9356 33.2675L16.9112 33.2676ZM15.9356 33.2675L15.9355 34.2431L14.9598 34.243L14.96 33.2674L15.9356 33.2675ZM14.96 33.2674L14.9598 34.243L13.9842 34.2429L13.9843 33.2673L14.96 33.2674ZM14.9597 35.2186L14.9596 36.1943L13.984 36.1941L13.9841 35.2185L14.9597 35.2186ZM14.9596 36.1943L14.9595 37.1699L13.9839 37.1698L13.984 36.1941L14.9596 36.1943ZM15.9352 36.1944L15.9351 37.17L14.9595 37.1699L14.9596 36.1943L15.9352 36.1944ZM16.9108 36.1945L16.9107 37.1701L15.9351 37.17L15.9352 36.1944L16.9108 36.1945ZM16.911 35.2189L16.9108 36.1945L15.9352 36.1944L15.9353 35.2188L16.911 35.2189ZM16.9111 34.2433L16.911 35.2189L15.9353 35.2188L15.9355 34.2431L16.9111 34.2433ZM17.8867 34.2434L17.8866 35.219L16.911 35.2189L16.9111 34.2433L17.8867 34.2434ZM18.8623 34.2435L18.8622 35.2191L17.8866 35.219L17.8867 34.2434L18.8623 34.2435ZM19.8379 34.2436L19.8378 35.2192L18.8622 35.2191L18.8623 34.2435L19.8379 34.2436ZM20.8135 34.2437L20.8134 35.2193L19.8378 35.2192L19.8379 34.2436L20.8135 34.2437ZM21.7891 34.2438L21.789 35.2194L20.8134 35.2193L20.8135 34.2437L21.7891 34.2438ZM20.8134 35.2193L20.8133 36.1949L19.8377 36.1948L19.8378 35.2192L20.8134 35.2193ZM19.8378 35.2192L19.8377 36.1948L18.8621 36.1947L18.8622 35.2191L19.8378 35.2192ZM17.8865 36.1946L17.8863 37.1702L16.9107 37.1701L16.9108 36.1945L17.8865 36.1946ZM17.8866 35.219L17.8865 36.1946L16.9108 36.1945L16.911 35.2189L17.8866 35.219ZM18.8622 35.2191L18.8621 36.1947L17.8865 36.1946L17.8866 35.219L18.8622 35.2191ZM15.9353 35.2188L15.9352 36.1944L14.9596 36.1943L14.9597 35.2186L15.9353 35.2188ZM14.9598 34.243L14.9597 35.2186L13.9841 35.2185L13.9842 34.2429L14.9598 34.243ZM15.9355 34.2431L15.9353 35.2188L14.9597 35.2186L14.9598 34.243L15.9355 34.2431ZM19.8376 37.1704L19.8375 38.146L18.8619 38.1459L18.862 37.1703L19.8376 37.1704ZM20.8132 37.1705L20.8131 38.1461L19.8375 38.146L19.8376 37.1704L20.8132 37.1705ZM21.7888 37.1706L21.7887 38.1462L20.8131 38.1461L20.8132 37.1705L21.7888 37.1706ZM22.7644 37.1707L22.7643 38.1463L21.7887 38.1462L21.7888 37.1706L22.7644 37.1707ZM23.74 37.1708L23.7399 38.1465L22.7643 38.1463L22.7644 37.1707L23.74 37.1708ZM24.7156 37.1709L24.7155 38.1466L23.7399 38.1465L23.74 37.1708L24.7156 37.1709ZM25.6912 37.1711L25.6911 38.1467L24.7155 38.1466L24.7156 37.1709L25.6912 37.1711ZM25.6913 36.1954L25.6912 37.1711L24.7156 37.1709L24.7157 36.1953L25.6913 36.1954ZM26.6669 36.1956L26.6668 37.1712L25.6912 37.1711L25.6913 36.1954L26.6669 36.1956ZM27.6426 36.1957L27.6424 37.1713L26.6668 37.1712L26.6669 36.1956L27.6426 36.1957ZM24.7157 36.1953L24.7156 37.1709L23.74 37.1708L23.7401 36.1952L24.7157 36.1953ZM23.7402 35.2196L23.7401 36.1952L22.7645 36.1951L22.7646 35.2195L23.7402 35.2196ZM23.7401 36.1952L23.74 37.1708L22.7644 37.1707L22.7645 36.1951L23.7401 36.1952ZM22.7645 36.1951L22.7644 37.1707L21.7888 37.1706L21.7889 36.195L22.7645 36.1951ZM24.7158 35.2197L24.7157 36.1953L23.7401 36.1952L23.7402 35.2196L24.7158 35.2197ZM24.7159 34.2441L24.7158 35.2197L23.7402 35.2196L23.7403 34.244L24.7159 34.2441ZM24.7161 33.2685L24.7159 34.2441L23.7403 34.244L23.7404 33.2684L24.7161 33.2685ZM23.7404 33.2684L23.7403 34.244L22.7647 34.2439L22.7648 33.2683L23.7404 33.2684ZM23.7403 34.244L23.7402 35.2196L22.7646 35.2195L22.7647 34.2439L23.7403 34.244ZM25.6917 33.2686L25.6916 34.2442L24.7159 34.2441L24.7161 33.2685L25.6917 33.2686ZM26.6673 33.2687L26.6672 34.2443L25.6916 34.2442L25.6917 33.2686L26.6673 33.2687ZM27.6429 33.2688L27.6428 34.2444L26.6672 34.2443L26.6673 33.2687L27.6429 33.2688ZM28.6185 33.2689L28.6184 34.2446L27.6428 34.2444L27.6429 33.2688L28.6185 33.2689ZM29.594 34.2447L29.5939 35.2203L28.6183 35.2202L28.6184 34.2446L29.594 34.2447ZM30.5696 34.2448L30.5695 35.2204L29.5939 35.2203L29.594 34.2447L30.5696 34.2448ZM30.5697 33.2692L30.5696 34.2448L29.594 34.2447L29.5941 33.2691L30.5697 33.2692ZM31.5453 33.2693L31.5452 34.2449L30.5696 34.2448L30.5697 33.2692L31.5453 33.2693ZM29.5941 33.2691L29.594 34.2447L28.6184 34.2446L28.6185 33.2689L29.5941 33.2691ZM31.5452 34.2449L31.5451 35.2205L30.5695 35.2204L30.5696 34.2448L31.5452 34.2449ZM31.5451 35.2205L31.545 36.1961L30.5694 36.196L30.5695 35.2204L31.5451 35.2205ZM31.545 36.1961L31.5449 37.1717L30.5693 37.1716L30.5694 36.196L31.545 36.1961ZM31.5449 37.1717L31.5448 38.1473L30.5692 38.1472L30.5693 37.1716L31.5449 37.1717ZM30.5693 37.1716L30.5692 38.1472L29.5936 38.1471L29.5937 37.1715L30.5693 37.1716ZM29.5937 37.1715L29.5936 38.1471L28.6179 38.147L28.6181 37.1714L29.5937 37.1715ZM28.6181 37.1714L28.6179 38.147L27.6423 38.1469L27.6424 37.1713L28.6181 37.1714ZM27.6424 37.1713L27.6423 38.1469L26.6667 38.1468L26.6668 37.1712L27.6424 37.1713ZM26.6668 37.1712L26.6667 38.1468L25.6911 38.1467L25.6912 37.1711L26.6668 37.1712ZM26.6671 35.2199L26.6669 36.1956L25.6913 36.1954L25.6914 35.2198L26.6671 35.2199ZM27.6427 35.2201L27.6426 36.1957L26.6669 36.1956L26.6671 35.2199L27.6427 35.2201ZM25.6914 35.2198L25.6913 36.1954L24.7157 36.1953L24.7158 35.2197L25.6914 35.2198ZM25.6916 34.2442L25.6914 35.2198L24.7158 35.2197L24.7159 34.2441L25.6916 34.2442ZM26.6672 34.2443L26.6671 35.2199L25.6914 35.2198L25.6916 34.2442L26.6672 34.2443ZM27.6428 34.2444L27.6427 35.2201L26.6671 35.2199L26.6672 34.2443L27.6428 34.2444ZM28.6184 34.2446L28.6183 35.2202L27.6427 35.2201L27.6428 34.2444L28.6184 34.2446ZM29.5939 35.2203L29.5938 36.1959L28.6182 36.1958L28.6183 35.2202L29.5939 35.2203ZM28.6183 35.2202L28.6182 36.1958L27.6426 36.1957L27.6427 35.2201L28.6183 35.2202ZM28.6182 36.1958L28.6181 37.1714L27.6424 37.1713L27.6426 36.1957L28.6182 36.1958ZM29.5938 36.1959L29.5937 37.1715L28.6181 37.1714L28.6182 36.1958L29.5938 36.1959ZM30.5694 36.196L30.5693 37.1716L29.5937 37.1715L29.5938 36.1959L30.5694 36.196ZM30.5695 35.2204L30.5694 36.196L29.5938 36.1959L29.5939 35.2203L30.5695 35.2204Z" fill="white"/>
<path d="M11.5864 15.5081L11.5863 14.5325L10.6107 14.5326L10.6108 15.5082L11.5864 15.5081ZM12.5621 15.508L12.5619 14.5324L11.5863 14.5325L11.5864 15.5081L12.5621 15.508ZM13.5377 15.5079L13.5376 14.5323L12.5619 14.5324L12.5621 15.508L13.5377 15.5079ZM14.5133 15.5078L14.5132 14.5322L13.5376 14.5323L13.5377 15.5079L14.5133 15.5078ZM14.5134 16.4834L14.5133 15.5078L13.5377 15.5079L13.5378 16.4835L14.5134 16.4834ZM14.5135 17.459L14.5134 16.4834L13.5378 16.4835L13.5379 17.4591L14.5135 17.459ZM14.5136 18.4346L14.5135 17.459L13.5379 17.4591L13.538 18.4347L14.5136 18.4346ZM15.4892 18.4345L15.4891 17.4589L14.5135 17.459L14.5136 18.4346L15.4892 18.4345ZM15.4891 17.4589L15.489 16.4833L14.5134 16.4834L14.5135 17.459L15.4891 17.4589ZM15.489 16.4833L15.4889 15.5077L14.5133 15.5078L14.5134 16.4834L15.489 16.4833ZM15.4889 15.5077L15.4888 14.5321L14.5132 14.5322L14.5133 15.5078L15.4889 15.5077ZM15.4893 19.4101L15.4892 18.4345L14.5136 18.4346L14.5137 19.4102L15.4893 19.4101ZM14.5137 19.4102L14.5136 18.4346L13.538 18.4347L13.5381 19.4103L14.5137 19.4102ZM13.5381 19.4103L13.538 18.4347L12.5624 18.4348L12.5625 19.4104L13.5381 19.4103ZM12.5625 19.4104L12.5624 18.4348L11.5868 18.4349L11.5869 19.4105L12.5625 19.4104ZM12.5624 18.4348L12.5623 17.4592L11.5867 17.4593L11.5868 18.4349L12.5624 18.4348ZM11.5869 19.4105L11.5868 18.4349L10.6112 18.435L10.6113 19.4107L11.5869 19.4105ZM11.5868 18.4349L11.5867 17.4593L10.6111 17.4594L10.6112 18.435L11.5868 18.4349ZM11.5867 17.4593L11.5866 16.4837L10.6109 16.4838L10.6111 17.4594L11.5867 17.4593ZM11.5866 16.4837L11.5864 15.5081L10.6108 15.5082L10.6109 16.4838L11.5866 16.4837ZM12.5622 16.4836L12.5621 15.508L11.5864 15.5081L11.5866 16.4837L12.5622 16.4836ZM13.5378 16.4835L13.5377 15.5079L12.5621 15.508L12.5622 16.4836L13.5378 16.4835ZM13.5379 17.4591L13.5378 16.4835L12.5622 16.4836L12.5623 17.4592L13.5379 17.4591ZM13.538 18.4347L13.5379 17.4591L12.5623 17.4592L12.5624 18.4348L13.538 18.4347ZM12.5623 17.4592L12.5622 16.4836L11.5866 16.4837L11.5867 17.4593L12.5623 17.4592Z" fill="white"/>
<path d="M29.0829 14.978L29.0828 14.0024L28.1072 14.0025L28.1073 14.9781L29.0829 14.978ZM30.0586 14.9779L30.0584 14.0023L29.0828 14.0024L29.0829 14.978L30.0586 14.9779ZM31.0342 14.9778L31.0341 14.0022L30.0584 14.0023L30.0586 14.9779L31.0342 14.9778ZM32.0098 14.9777L32.0097 14.0021L31.0341 14.0022L31.0342 14.9778L32.0098 14.9777ZM32.0099 15.9533L32.0098 14.9777L31.0342 14.9778L31.0343 15.9534L32.0099 15.9533ZM32.01 16.9289L32.0099 15.9533L31.0343 15.9534L31.0344 16.929L32.01 16.9289ZM32.0101 17.9045L32.01 16.9289L31.0344 16.929L31.0345 17.9046L32.0101 17.9045ZM32.9857 17.9044L32.9856 16.9288L32.01 16.9289L32.0101 17.9045L32.9857 17.9044ZM32.9856 16.9288L32.9855 15.9532L32.0099 15.9533L32.01 16.9289L32.9856 16.9288ZM32.9855 15.9532L32.9854 14.9776L32.0098 14.9777L32.0099 15.9533L32.9855 15.9532ZM32.9854 14.9776L32.9853 14.002L32.0097 14.0021L32.0098 14.9777L32.9854 14.9776ZM32.9858 18.88L32.9857 17.9044L32.0101 17.9045L32.0102 18.8801L32.9858 18.88ZM32.0102 18.8801L32.0101 17.9045L31.0345 17.9046L31.0346 18.8802L32.0102 18.8801ZM31.0346 18.8802L31.0345 17.9046L30.0589 17.9047L30.059 18.8803L31.0346 18.8802ZM30.059 18.8803L30.0589 17.9047L29.0833 17.9048L29.0834 18.8804L30.059 18.8803ZM30.0589 17.9047L30.0588 16.9291L29.0832 16.9292L29.0833 17.9048L30.0589 17.9047ZM29.0834 18.8804L29.0833 17.9048L28.1077 17.9049L28.1078 18.8805L29.0834 18.8804ZM29.0833 17.9048L29.0832 16.9292L28.1076 16.9293L28.1077 17.9049L29.0833 17.9048ZM29.0832 16.9292L29.0831 15.9536L28.1074 15.9537L28.1076 16.9293L29.0832 16.9292ZM29.0831 15.9536L29.0829 14.978L28.1073 14.9781L28.1074 15.9537L29.0831 15.9536ZM30.0587 15.9535L30.0586 14.9779L29.0829 14.978L29.0831 15.9536L30.0587 15.9535ZM31.0343 15.9534L31.0342 14.9778L30.0586 14.9779L30.0587 15.9535L31.0343 15.9534ZM31.0344 16.929L31.0343 15.9534L30.0587 15.9535L30.0588 16.9291L31.0344 16.929ZM31.0345 17.9046L31.0344 16.929L30.0588 16.9291L30.0589 17.9047L31.0345 17.9046ZM30.0588 16.9291L30.0587 15.9535L29.0831 15.9536L29.0832 16.9292L30.0588 16.9291Z" fill="white"/>
<path d="M19.6168 26.6102L19.7595 27.0767L19.293 27.2193L19.1504 26.7528L19.6168 26.6102ZM19.4742 26.1437L19.6168 26.6102L19.1504 26.7528L19.0077 26.2863L19.4742 26.1437ZM19.3316 25.6772L19.4742 26.1437L19.0077 26.2863L18.8651 25.8198L19.3316 25.6772ZM19.189 25.2107L19.3316 25.6772L18.8651 25.8198L18.7225 25.3533L19.189 25.2107ZM20.122 24.9255L20.2646 25.392L19.7981 25.5346L19.6555 25.0681L20.122 24.9255ZM20.2646 25.392L20.4072 25.8585L19.9407 26.0011L19.7981 25.5346L20.2646 25.392ZM20.4072 25.8585L20.5498 26.3249L20.0833 26.4676L19.9407 26.0011L20.4072 25.8585ZM20.5498 26.3249L20.6924 26.7914L20.226 26.9341L20.0833 26.4676L20.5498 26.3249ZM20.6924 26.7914L20.8351 27.2579L20.3686 27.4005L20.226 26.9341L20.6924 26.7914ZM20.8351 27.2579L20.9777 27.7244L20.5112 27.867L20.3686 27.4005L20.8351 27.2579ZM20.9777 27.7244L21.1203 28.1909L20.6538 28.3335L20.5112 27.867L20.9777 27.7244ZM22.0533 27.9057L22.1959 28.3722L21.7294 28.5148L21.5868 28.0483L22.0533 27.9057ZM21.9107 27.4392L22.0533 27.9057L21.5868 28.0483L21.4442 27.5818L21.9107 27.4392ZM21.768 26.9727L21.9107 27.4392L21.4442 27.5818L21.3016 27.1153L21.768 26.9727ZM21.6254 26.5062L21.768 26.9727L21.3016 27.1153L21.1589 26.6488L21.6254 26.5062ZM21.4828 26.0397L21.6254 26.5062L21.1589 26.6488L21.0163 26.1823L21.4828 26.0397ZM21.3402 25.5732L21.4828 26.0397L21.0163 26.1823L20.8737 25.7158L21.3402 25.5732ZM21.1976 25.1067L21.3402 25.5732L20.8737 25.7158L20.7311 25.2493L21.1976 25.1067ZM21.0549 24.6402L21.1976 25.1067L20.7311 25.2493L20.5885 24.7829L21.0549 24.6402ZM20.5885 24.7829L20.7311 25.2493L20.2646 25.392L20.122 24.9255L20.5885 24.7829ZM20.7311 25.2493L20.8737 25.7158L20.4072 25.8585L20.2646 25.392L20.7311 25.2493ZM20.8737 25.7158L21.0163 26.1823L20.5498 26.3249L20.4072 25.8585L20.8737 25.7158ZM21.0163 26.1823L21.1589 26.6488L20.6924 26.7914L20.5498 26.3249L21.0163 26.1823ZM21.1589 26.6488L21.3016 27.1153L20.8351 27.2579L20.6924 26.7914L21.1589 26.6488ZM21.3016 27.1153L21.4442 27.5818L20.9777 27.7244L20.8351 27.2579L21.3016 27.1153ZM21.4442 27.5818L21.5868 28.0483L21.1203 28.1909L20.9777 27.7244L21.4442 27.5818ZM20.3686 27.4005L20.5112 27.867L20.0447 28.0097L19.9021 27.5432L20.3686 27.4005ZM20.226 26.9341L20.3686 27.4005L19.9021 27.5432L19.7595 27.0767L20.226 26.9341ZM20.0833 26.4676L20.226 26.9341L19.7595 27.0767L19.6168 26.6102L20.0833 26.4676ZM19.9407 26.0011L20.0833 26.4676L19.6168 26.6102L19.4742 26.1437L19.9407 26.0011ZM19.7981 25.5346L19.9407 26.0011L19.4742 26.1437L19.3316 25.6772L19.7981 25.5346ZM19.6555 25.0681L19.7981 25.5346L19.3316 25.6772L19.189 25.2107L19.6555 25.0681ZM24.8522 27.0499L24.9948 27.5164L24.5284 27.6591L24.3857 27.1926L24.8522 27.0499ZM24.7096 26.5835L24.8522 27.0499L24.3857 27.1926L24.2431 26.7261L24.7096 26.5835ZM24.567 26.117L24.7096 26.5835L24.2431 26.7261L24.1005 26.2596L24.567 26.117ZM24.4244 25.6505L24.567 26.117L24.1005 26.2596L23.9579 25.7931L24.4244 25.6505ZM24.2817 25.184L24.4244 25.6505L23.9579 25.7931L23.8153 25.3266L24.2817 25.184ZM24.1391 24.7175L24.2817 25.184L23.8153 25.3266L23.6726 24.8601L24.1391 24.7175ZM23.9965 24.251L24.1391 24.7175L23.6726 24.8601L23.53 24.3936L23.9965 24.251ZM23.8539 23.7845L23.9965 24.251L23.53 24.3936L23.3874 23.9271L23.8539 23.7845ZM23.7113 23.318L23.8539 23.7845L23.3874 23.9271L23.2448 23.4606L23.7113 23.318ZM23.5686 22.8515L23.7113 23.318L23.2448 23.4606L23.1022 22.9942L23.5686 22.8515ZM23.426 22.385L23.5686 22.8515L23.1022 22.9942L22.9595 22.5277L23.426 22.385ZM23.8925 22.2424L24.0351 22.7089L23.5686 22.8515L23.426 22.385L23.8925 22.2424ZM24.0351 22.7089L24.1778 23.1754L23.7113 23.318L23.5686 22.8515L24.0351 22.7089ZM24.1778 23.1754L24.3204 23.6419L23.8539 23.7845L23.7113 23.318L24.1778 23.1754ZM24.7869 23.4993L24.9295 23.9658L24.463 24.1084L24.3204 23.6419L24.7869 23.4993ZM24.9295 23.9658L25.0721 24.4323L24.6056 24.5749L24.463 24.1084L24.9295 23.9658ZM25.0721 24.4323L25.2147 24.8987L24.7482 25.0414L24.6056 24.5749L25.0721 24.4323ZM25.2147 24.8987L25.3573 25.3652L24.8909 25.5079L24.7482 25.0414L25.2147 24.8987ZM25.3573 25.3652L25.5 25.8317L25.0335 25.9743L24.8909 25.5079L25.3573 25.3652ZM25.5 25.8317L25.6426 26.2982L25.1761 26.4408L25.0335 25.9743L25.5 25.8317ZM25.6426 26.2982L25.7852 26.7647L25.3187 26.9073L25.1761 26.4408L25.6426 26.2982ZM26.1477 24.6135L26.2903 25.08L25.8238 25.2226L25.6812 24.7561L26.1477 24.6135ZM26.0051 24.147L26.1477 24.6135L25.6812 24.7561L25.5386 24.2896L26.0051 24.147ZM25.8625 23.6805L26.0051 24.147L25.5386 24.2896L25.396 23.8231L25.8625 23.6805ZM25.7198 23.214L25.8625 23.6805L25.396 23.8231L25.2534 23.3567L25.7198 23.214ZM25.2534 23.3567L25.396 23.8231L24.9295 23.9658L24.7869 23.4993L25.2534 23.3567ZM25.1107 22.8902L25.2534 23.3567L24.7869 23.4993L24.6442 23.0328L25.1107 22.8902ZM25.396 23.8231L25.5386 24.2896L25.0721 24.4323L24.9295 23.9658L25.396 23.8231ZM25.5386 24.2896L25.6812 24.7561L25.2147 24.8987L25.0721 24.4323L25.5386 24.2896ZM25.6812 24.7561L25.8238 25.2226L25.3573 25.3652L25.2147 24.8987L25.6812 24.7561ZM25.8238 25.2226L25.9665 25.6891L25.5 25.8317L25.3573 25.3652L25.8238 25.2226ZM25.9665 25.6891L26.1091 26.1556L25.6426 26.2982L25.5 25.8317L25.9665 25.6891ZM25.1761 26.4408L25.3187 26.9073L24.8522 27.0499L24.7096 26.5835L25.1761 26.4408ZM25.0335 25.9743L25.1761 26.4408L24.7096 26.5835L24.567 26.117L25.0335 25.9743ZM24.8909 25.5079L25.0335 25.9743L24.567 26.117L24.4244 25.6505L24.8909 25.5079ZM24.7482 25.0414L24.8909 25.5079L24.4244 25.6505L24.2817 25.184L24.7482 25.0414ZM24.6056 24.5749L24.7482 25.0414L24.2817 25.184L24.1391 24.7175L24.6056 24.5749ZM24.463 24.1084L24.6056 24.5749L24.1391 24.7175L23.9965 24.251L24.463 24.1084ZM24.3204 23.6419L24.463 24.1084L23.9965 24.251L23.8539 23.7845L24.3204 23.6419ZM25.292 21.8146L25.4346 22.2811L24.9681 22.4237L24.8255 21.9572L25.292 21.8146ZM25.4346 22.2811L25.5772 22.7475L25.1107 22.8902L24.9681 22.4237L25.4346 22.2811ZM25.5772 22.7475L25.7198 23.214L25.2534 23.3567L25.1107 22.8902L25.5772 22.7475ZM24.359 22.0998L24.5016 22.5663L24.0351 22.7089L23.8925 22.2424L24.359 22.0998ZM24.5016 22.5663L24.6442 23.0328L24.1778 23.1754L24.0351 22.7089L24.5016 22.5663ZM24.6442 23.0328L24.7869 23.4993L24.3204 23.6419L24.1778 23.1754L24.6442 23.0328ZM24.9681 22.4237L25.1107 22.8902L24.6442 23.0328L24.5016 22.5663L24.9681 22.4237ZM24.8255 21.9572L24.9681 22.4237L24.5016 22.5663L24.359 22.0998L24.8255 21.9572ZM22.5198 27.763L22.6624 28.2295L22.1959 28.3722L22.0533 27.9057L22.5198 27.763ZM22.9863 27.6204L23.1289 28.0869L22.6624 28.2295L22.5198 27.763L22.9863 27.6204ZM23.4528 27.4778L23.5954 27.9443L23.1289 28.0869L22.9863 27.6204L23.4528 27.4778ZM23.9192 27.3352L24.0619 27.8017L23.5954 27.9443L23.4528 27.4778L23.9192 27.3352ZM24.3857 27.1926L24.5284 27.6591L24.0619 27.8017L23.9192 27.3352L24.3857 27.1926ZM24.2431 26.7261L24.3857 27.1926L23.9192 27.3352L23.7766 26.8687L24.2431 26.7261ZM23.7766 26.8687L23.9192 27.3352L23.4528 27.4778L23.3101 27.0113L23.7766 26.8687ZM23.3101 27.0113L23.4528 27.4778L22.9863 27.6204L22.8436 27.1539L23.3101 27.0113ZM22.8436 27.1539L22.9863 27.6204L22.5198 27.763L22.3772 27.2966L22.8436 27.1539ZM22.3772 27.2966L22.5198 27.763L22.0533 27.9057L21.9107 27.4392L22.3772 27.2966ZM22.2345 26.8301L22.3772 27.2966L21.9107 27.4392L21.768 26.9727L22.2345 26.8301ZM22.701 26.6874L22.8436 27.1539L22.3772 27.2966L22.2345 26.8301L22.701 26.6874ZM23.1675 26.5448L23.3101 27.0113L22.8436 27.1539L22.701 26.6874L23.1675 26.5448ZM23.634 26.4022L23.7766 26.8687L23.3101 27.0113L23.1675 26.5448L23.634 26.4022ZM24.1005 26.2596L24.2431 26.7261L23.7766 26.8687L23.634 26.4022L24.1005 26.2596ZM23.9579 25.7931L24.1005 26.2596L23.634 26.4022L23.4914 25.9357L23.9579 25.7931ZM23.4914 25.9357L23.634 26.4022L23.1675 26.5448L23.0249 26.0783L23.4914 25.9357ZM23.0249 26.0783L23.1675 26.5448L22.701 26.6874L22.5584 26.221L23.0249 26.0783ZM22.5584 26.221L22.701 26.6874L22.2345 26.8301L22.0919 26.3636L22.5584 26.221ZM22.0919 26.3636L22.2345 26.8301L21.768 26.9727L21.6254 26.5062L22.0919 26.3636ZM21.9493 25.8971L22.0919 26.3636L21.6254 26.5062L21.4828 26.0397L21.9493 25.8971ZM23.8153 25.3266L23.9579 25.7931L23.4914 25.9357L23.3488 25.4692L23.8153 25.3266ZM21.4293 15.8542L21.572 16.3207L21.1055 16.4633L20.9628 15.9968L21.4293 15.8542ZM21.572 16.3207L21.7146 16.7872L21.2481 16.9298L21.1055 16.4633L21.572 16.3207ZM21.7146 16.7872L21.8572 17.2537L21.3907 17.3963L21.2481 16.9298L21.7146 16.7872ZM21.8572 17.2537L21.9998 17.7201L21.5333 17.8628L21.3907 17.3963L21.8572 17.2537ZM21.9998 17.7201L22.1424 18.1866L21.676 18.3293L21.5333 17.8628L21.9998 17.7201ZM22.1424 18.1866L22.2851 18.6531L21.8186 18.7957L21.676 18.3293L22.1424 18.1866ZM22.2851 18.6531L22.4277 19.1196L21.9612 19.2622L21.8186 18.7957L22.2851 18.6531ZM22.4277 19.1196L22.5703 19.5861L22.1038 19.7287L21.9612 19.2622L22.4277 19.1196ZM22.5703 19.5861L22.7129 20.0526L22.2464 20.1952L22.1038 19.7287L22.5703 19.5861ZM22.7129 20.0526L22.8555 20.5191L22.3891 20.6617L22.2464 20.1952L22.7129 20.0526ZM22.8555 20.5191L22.9982 20.9856L22.5317 21.1282L22.3891 20.6617L22.8555 20.5191ZM22.9982 20.9856L23.1408 21.4521L22.6743 21.5947L22.5317 21.1282L22.9982 20.9856ZM23.4647 20.843L23.6073 21.3094L23.1408 21.4521L22.9982 20.9856L23.4647 20.843ZM23.6073 21.3094L23.7499 21.7759L23.2834 21.9186L23.1408 21.4521L23.6073 21.3094ZM23.1408 21.4521L23.2834 21.9186L22.8169 22.0612L22.6743 21.5947L23.1408 21.4521ZM23.2834 21.9186L23.426 22.385L22.9595 22.5277L22.8169 22.0612L23.2834 21.9186ZM23.7499 21.7759L23.8925 22.2424L23.426 22.385L23.2834 21.9186L23.7499 21.7759ZM24.2164 21.6333L24.359 22.0998L23.8925 22.2424L23.7499 21.7759L24.2164 21.6333ZM24.6829 21.4907L24.8255 21.9572L24.359 22.0998L24.2164 21.6333L24.6829 21.4907ZM25.1494 21.3481L25.292 21.8146L24.8255 21.9572L24.6829 21.4907L25.1494 21.3481ZM25.0067 20.8816L25.1494 21.3481L24.6829 21.4907L24.5403 21.0242L25.0067 20.8816ZM24.5403 21.0242L24.6829 21.4907L24.2164 21.6333L24.0738 21.1668L24.5403 21.0242ZM24.3976 20.5577L24.5403 21.0242L24.0738 21.1668L23.9311 20.7003L24.3976 20.5577ZM24.7215 19.9486L24.8641 20.4151L24.3976 20.5577L24.255 20.0912L24.7215 19.9486ZM24.5789 19.4821L24.7215 19.9486L24.255 20.0912L24.1124 19.6247L24.5789 19.4821ZM24.4363 19.0156L24.5789 19.4821L24.1124 19.6247L23.9698 19.1582L24.4363 19.0156ZM24.2936 18.5491L24.4363 19.0156L23.9698 19.1582L23.8272 18.6917L24.2936 18.5491ZM24.151 18.0826L24.2936 18.5491L23.8272 18.6917L23.6845 18.2253L24.151 18.0826ZM24.0084 17.6161L24.151 18.0826L23.6845 18.2253L23.5419 17.7588L24.0084 17.6161ZM23.8658 17.1497L24.0084 17.6161L23.5419 17.7588L23.3993 17.2923L23.8658 17.1497ZM23.7232 16.6832L23.8658 17.1497L23.3993 17.2923L23.2567 16.8258L23.7232 16.6832ZM24.8641 20.4151L25.0067 20.8816L24.5403 21.0242L24.3976 20.5577L24.8641 20.4151ZM23.5805 16.2167L23.7232 16.6832L23.2567 16.8258L23.1141 16.3593L23.5805 16.2167ZM23.4379 15.7502L23.5805 16.2167L23.1141 16.3593L22.9714 15.8928L23.4379 15.7502ZM23.2953 15.2837L23.4379 15.7502L22.9714 15.8928L22.8288 15.4263L23.2953 15.2837ZM22.8288 15.4263L22.9714 15.8928L22.5049 16.0354L22.3623 15.5689L22.8288 15.4263ZM22.3623 15.5689L22.5049 16.0354L22.0385 16.178L21.8958 15.7116L22.3623 15.5689ZM21.8958 15.7116L22.0385 16.178L21.572 16.3207L21.4293 15.8542L21.8958 15.7116ZM22.0385 16.178L22.1811 16.6445L21.7146 16.7872L21.572 16.3207L22.0385 16.178ZM22.1811 16.6445L22.3237 17.111L21.8572 17.2537L21.7146 16.7872L22.1811 16.6445ZM22.3237 17.111L22.4663 17.5775L21.9998 17.7201L21.8572 17.2537L22.3237 17.111ZM22.4663 17.5775L22.6089 18.044L22.1424 18.1866L21.9998 17.7201L22.4663 17.5775ZM22.6089 18.044L22.7516 18.5105L22.2851 18.6531L22.1424 18.1866L22.6089 18.044ZM22.7516 18.5105L22.8942 18.977L22.4277 19.1196L22.2851 18.6531L22.7516 18.5105ZM22.8942 18.977L23.0368 19.4435L22.5703 19.5861L22.4277 19.1196L22.8942 18.977ZM23.0368 19.4435L23.1794 19.91L22.7129 20.0526L22.5703 19.5861L23.0368 19.4435ZM23.1794 19.91L23.322 20.3765L22.8555 20.5191L22.7129 20.0526L23.1794 19.91ZM23.7885 20.2338L23.9311 20.7003L23.4647 20.843L23.322 20.3765L23.7885 20.2338ZM23.9311 20.7003L24.0738 21.1668L23.6073 21.3094L23.4647 20.843L23.9311 20.7003ZM24.0738 21.1668L24.2164 21.6333L23.7499 21.7759L23.6073 21.3094L24.0738 21.1668ZM23.322 20.3765L23.4647 20.843L22.9982 20.9856L22.8555 20.5191L23.322 20.3765ZM24.255 20.0912L24.3976 20.5577L23.9311 20.7003L23.7885 20.2338L24.255 20.0912ZM23.9698 19.1582L24.1124 19.6247L23.6459 19.7674L23.5033 19.3009L23.9698 19.1582ZM23.8272 18.6917L23.9698 19.1582L23.5033 19.3009L23.3607 18.8344L23.8272 18.6917ZM23.6845 18.2253L23.8272 18.6917L23.3607 18.8344L23.218 18.3679L23.6845 18.2253ZM23.5419 17.7588L23.6845 18.2253L23.218 18.3679L23.0754 17.9014L23.5419 17.7588ZM23.3993 17.2923L23.5419 17.7588L23.0754 17.9014L22.9328 17.4349L23.3993 17.2923ZM23.2567 16.8258L23.3993 17.2923L22.9328 17.4349L22.7902 16.9684L23.2567 16.8258ZM23.1141 16.3593L23.2567 16.8258L22.7902 16.9684L22.6476 16.5019L23.1141 16.3593ZM22.9714 15.8928L23.1141 16.3593L22.6476 16.5019L22.5049 16.0354L22.9714 15.8928ZM22.5049 16.0354L22.6476 16.5019L22.1811 16.6445L22.0385 16.178L22.5049 16.0354ZM22.6476 16.5019L22.7902 16.9684L22.3237 17.111L22.1811 16.6445L22.6476 16.5019ZM22.7902 16.9684L22.9328 17.4349L22.4663 17.5775L22.3237 17.111L22.7902 16.9684ZM22.9328 17.4349L23.0754 17.9014L22.6089 18.044L22.4663 17.5775L22.9328 17.4349ZM23.0754 17.9014L23.218 18.3679L22.7516 18.5105L22.6089 18.044L23.0754 17.9014ZM23.218 18.3679L23.3607 18.8344L22.8942 18.977L22.7516 18.5105L23.218 18.3679ZM23.3607 18.8344L23.5033 19.3009L23.0368 19.4435L22.8942 18.977L23.3607 18.8344ZM23.5033 19.3009L23.6459 19.7674L23.1794 19.91L23.0368 19.4435L23.5033 19.3009ZM23.6459 19.7674L23.7885 20.2338L23.322 20.3765L23.1794 19.91L23.6459 19.7674ZM24.1124 19.6247L24.255 20.0912L23.7885 20.2338L23.6459 19.7674L24.1124 19.6247ZM23.6726 24.8601L23.8153 25.3266L23.3488 25.4692L23.2061 25.0027L23.6726 24.8601ZM21.8067 25.4306L21.9493 25.8971L21.4828 26.0397L21.3402 25.5732L21.8067 25.4306ZM22.4158 25.7545L22.5584 26.221L22.0919 26.3636L21.9493 25.8971L22.4158 25.7545ZM22.8823 25.6118L23.0249 26.0783L22.5584 26.221L22.4158 25.7545L22.8823 25.6118ZM23.3488 25.4692L23.4914 25.9357L23.0249 26.0783L22.8823 25.6118L23.3488 25.4692ZM20.9123 24.1737L21.0549 24.6402L20.5885 24.7829L20.4458 24.3164L20.9123 24.1737ZM20.4458 24.3164L20.5885 24.7829L20.122 24.9255L19.9793 24.459L20.4458 24.3164ZM19.9793 24.459L20.122 24.9255L19.6555 25.0681L19.5129 24.6016L19.9793 24.459ZM19.5129 24.6016L19.6555 25.0681L19.189 25.2107L19.0464 24.7442L19.5129 24.6016ZM19.0464 24.7442L19.189 25.2107L18.7225 25.3533L18.5799 24.8868L19.0464 24.7442Z" fill="white"/>
</svg>
